<svg width="42" height="42" viewBox="0 0 42 42" fill="none" xmlns="http://www.w3.org/2000/svg">
<path d="M24.5 5.25C25.4665 5.25 26.25 6.0335 26.25 7C26.25 7.9665 25.4665 8.75 24.5 8.75C23.5335 8.75 22.75 7.9665 22.75 7C22.75 6.0335 23.5335 5.25 24.5 5.25Z" fill="#FFF6EA"/>
<path d="M31.0625 13.125C31.7874 13.125 32.375 13.7126 32.375 14.4375C32.375 15.1624 31.7874 15.75 31.0625 15.75C30.3376 15.75 29.75 15.1624 29.75 14.4375C29.75 13.7126 30.3376 13.125 31.0625 13.125Z" fill="#FFF6EA"/>
<path d="M33.25 7.875C33.25 7.39175 32.8582 7 32.375 7C31.8918 7 31.5 7.39175 31.5 7.875C31.5 8.35825 31.8918 8.75 32.375 8.75C32.8582 8.75 33.25 8.35825 33.25 7.875Z" fill="#FFF6EA"/>
<path d="M35.875 15.75C36.3582 15.75 36.75 16.1418 36.75 16.625C36.75 17.1082 36.3582 17.5 35.875 17.5C35.3918 17.5 35 17.1082 35 16.625C35 16.1418 35.3918 15.75 35.875 15.75Z" fill="#FFF6EA"/>
<path fill-rule="evenodd" clip-rule="evenodd" d="M13.783 5.53523C15.3405 4.80724 16.9009 5.94901 17.0508 7.4379H18.375C20.5496 7.4379 22.3125 9.20078 22.3125 11.3754C22.3125 12.1003 22.9001 12.6879 23.625 12.6879C25.7996 12.6879 27.5625 14.4508 27.5625 16.6254C27.5625 17.3503 28.1501 17.9379 28.875 17.9379C31.0496 17.9379 32.8125 19.7008 32.8125 21.8754V22.3428C32.8125 22.8095 33.1909 23.1879 33.6576 23.1879C35.7928 23.1879 37.7131 25.27 36.7484 27.5773C34.1748 33.7333 28.0945 38.0629 21 38.0629C11.5766 38.0629 3.9375 30.4238 3.9375 21.0004C3.9375 14.1542 7.96964 8.25239 13.783 5.53523ZM27.9999 28.0004C27.9999 27.0339 27.2164 26.2504 26.2499 26.2504C25.2834 26.2504 24.4999 27.0339 24.4999 28.0004C24.4999 28.9669 25.2834 29.7504 26.2499 29.7504C27.2164 29.7504 27.9999 28.9669 27.9999 28.0004ZM15.7499 26.2504C16.7164 26.2504 17.4999 27.0339 17.4999 28.0004C17.4999 28.9669 16.7164 29.7504 15.7499 29.7504C14.7834 29.7504 13.9999 28.9669 13.9999 28.0004C13.9999 27.0339 14.7834 26.2504 15.7499 26.2504ZM22.7499 19.2504C22.7499 18.2839 21.9664 17.5004 20.9999 17.5004C20.0334 17.5004 19.2499 18.2839 19.2499 19.2504C19.2499 20.2169 20.0334 21.0004 20.9999 21.0004C21.9664 21.0004 22.7499 20.2169 22.7499 19.2504ZM10.4999 15.7504C11.4664 15.7504 12.2499 16.5339 12.2499 17.5004C12.2499 18.4669 11.4664 19.2504 10.4999 19.2504C9.5334 19.2504 8.7499 18.4669 8.7499 17.5004C8.7499 16.5339 9.5334 15.7504 10.4999 15.7504Z" fill="#FFF6EA"/>
</svg>
