<svg width="42" height="42" viewBox="0 0 42 42" fill="none" xmlns="http://www.w3.org/2000/svg">
<path fill-rule="evenodd" clip-rule="evenodd" d="M29.75 3.9375C30.4749 3.9375 31.0625 4.52513 31.0625 5.25V7.37085C31.0624 10.3821 29.8898 13.342 28.1726 15.8782C26.8402 17.846 25.1457 19.6084 23.3157 21C25.1457 22.3916 26.8402 24.154 28.1726 26.1218C29.8898 28.658 31.0624 31.6179 31.0625 34.6292V36.75C31.0625 37.4749 30.4749 38.0625 29.75 38.0625C29.0251 38.0625 28.4375 37.4749 28.4375 36.75V34.6292C28.4374 32.288 27.5157 29.8335 25.9988 27.5933C25.7902 27.2852 25.5704 26.9834 25.3425 26.6875H16.6575C16.4296 26.9834 16.2098 27.2852 16.0012 27.5933C15.6212 28.1545 15.2794 28.7296 14.9792 29.3125H21C21.7249 29.3125 22.3125 29.9001 22.3125 30.625C22.3125 31.3499 21.7249 31.9375 21 31.9375H13.9436C13.7029 32.8167 13.5707 33.6969 13.5642 34.5625H17.5C18.2249 34.5625 18.8125 35.1501 18.8125 35.875C18.8125 36.5999 18.2249 37.1875 17.5 37.1875H13.4822C13.3015 37.6963 12.8208 38.0625 12.25 38.0625C11.5251 38.0625 10.9375 37.4749 10.9375 36.75V34.6292C10.9376 31.6179 12.1102 28.658 13.8274 26.1218C15.1596 24.1544 16.853 22.3915 18.6826 21C16.853 19.6085 15.1596 17.8456 13.8274 15.8782C12.1102 13.342 10.9376 10.3821 10.9375 7.37085V5.25C10.9375 4.52513 11.5251 3.9375 12.25 3.9375C12.9749 3.9375 13.5625 4.52513 13.5625 5.25V7.37085C13.5626 9.71203 14.4843 12.1665 16.0012 14.4067C16.2098 14.7148 16.4296 15.0166 16.6575 15.3125H25.3425C25.5704 15.0166 25.7902 14.7148 25.9988 14.4067C26.3788 13.8455 26.7206 13.2704 27.0208 12.6875H21C20.2751 12.6875 19.6875 12.0999 19.6875 11.375C19.6875 10.6501 20.2751 10.0625 21 10.0625H28.0564C28.2971 9.18331 28.4293 8.30313 28.4358 7.4375H24.5C23.7751 7.4375 23.1875 6.84987 23.1875 6.125C23.1875 5.40013 23.7751 4.8125 24.5 4.8125H28.5178C28.6985 4.30366 29.1792 3.9375 29.75 3.9375ZM21 22.5654C20.3509 23.0091 19.7171 23.5143 19.1047 24.0625H22.8953C22.2829 23.5143 21.6491 23.0091 21 22.5654ZM19.1047 17.9375C19.7169 18.4855 20.3512 18.9894 21 19.4329C21.6488 18.9894 22.2831 18.4855 22.8953 17.9375H19.1047Z" fill="#FFF6EA"/>
</svg>
