<svg width="42" height="42" viewBox="0 0 42 42" fill="none" xmlns="http://www.w3.org/2000/svg">
<path d="M12.25 30.625C12.9747 30.6252 13.5625 31.2128 13.5625 31.9375C13.5625 32.6622 12.9747 33.2498 12.25 33.25C11.5466 33.25 11.0651 33.5825 10.6846 34.3284C10.2706 35.1402 10.0625 36.3273 10.0625 37.625C10.0625 38.3499 9.47487 38.9375 8.75 38.9375C8.02513 38.9375 7.4375 38.3499 7.4375 37.625C7.4375 36.3273 7.22946 35.1402 6.81543 34.3284C6.43492 33.5826 5.9537 33.25 5.25 33.25C4.52513 33.25 3.9375 32.6624 3.9375 31.9375C3.9375 31.2126 4.52513 30.625 5.25 30.625C6.85177 30.625 7.99905 31.3985 8.75 32.4656C9.50087 31.3986 10.6484 30.625 12.25 30.625Z" fill="#FFF6EA"/>
<path d="M24.5 30.625C25.2247 30.6252 25.8125 31.2128 25.8125 31.9375C25.8125 32.6622 25.2247 33.2498 24.5 33.25C23.7966 33.25 23.3151 33.5825 22.9346 34.3284C22.5206 35.1402 22.3125 36.3273 22.3125 37.625C22.3125 38.3499 21.7249 38.9375 21 38.9375C20.2751 38.9375 19.6875 38.3499 19.6875 37.625C19.6875 36.3273 19.4795 35.1402 19.0654 34.3284C18.6849 33.5826 18.2037 33.25 17.5 33.25C16.7751 33.25 16.1875 32.6624 16.1875 31.9375C16.1875 31.2126 16.7751 30.625 17.5 30.625C19.1018 30.625 20.2491 31.3985 21 32.4656C21.7509 31.3986 22.8984 30.625 24.5 30.625Z" fill="#FFF6EA"/>
<path d="M36.75 30.625C37.4747 30.6252 38.0625 31.2128 38.0625 31.9375C38.0625 32.6622 37.4747 33.2498 36.75 33.25C36.0466 33.25 35.5651 33.5825 35.1846 34.3284C34.7706 35.1402 34.5625 36.3273 34.5625 37.625C34.5625 38.3499 33.9749 38.9375 33.25 38.9375C32.5251 38.9375 31.9375 38.3499 31.9375 37.625C31.9375 36.3273 31.7295 35.1402 31.3154 34.3284C30.9349 33.5826 30.4537 33.25 29.75 33.25C29.0251 33.25 28.4375 32.6624 28.4375 31.9375C28.4375 31.2126 29.0251 30.625 29.75 30.625C31.3518 30.625 32.4991 31.3985 33.25 32.4656C34.0009 31.3986 35.1484 30.625 36.75 30.625Z" fill="#FFF6EA"/>
<path d="M12.25 17.0625C12.9747 17.0627 13.5625 17.6503 13.5625 18.375C13.5625 19.0997 12.9747 19.6873 12.25 19.6875C11.5466 19.6875 11.0651 20.02 10.6846 20.7659C10.2706 21.5777 10.0625 22.7648 10.0625 24.0625C10.0625 24.7874 9.47487 25.375 8.75 25.375C8.02513 25.375 7.4375 24.7874 7.4375 24.0625C7.4375 22.7648 7.22946 21.5777 6.81543 20.7659C6.43492 20.0201 5.9537 19.6875 5.25 19.6875C4.52513 19.6875 3.9375 19.0999 3.9375 18.375C3.9375 17.6501 4.52513 17.0625 5.25 17.0625C6.85177 17.0625 7.99905 17.836 8.75 18.9031C9.50087 17.8361 10.6484 17.0625 12.25 17.0625Z" fill="#FFF6EA"/>
<path d="M24.5 17.0625C25.2247 17.0627 25.8125 17.6503 25.8125 18.375C25.8125 19.0997 25.2247 19.6873 24.5 19.6875C23.7966 19.6875 23.3151 20.02 22.9346 20.7659C22.5206 21.5777 22.3125 22.7648 22.3125 24.0625C22.3125 24.7874 21.7249 25.375 21 25.375C20.2751 25.375 19.6875 24.7874 19.6875 24.0625C19.6875 22.7648 19.4795 21.5777 19.0654 20.7659C18.6849 20.0201 18.2037 19.6875 17.5 19.6875C16.7751 19.6875 16.1875 19.0999 16.1875 18.375C16.1875 17.6501 16.7751 17.0625 17.5 17.0625C19.1018 17.0625 20.2491 17.836 21 18.9031C21.7509 17.8361 22.8984 17.0625 24.5 17.0625Z" fill="#FFF6EA"/>
<path d="M36.75 17.0625C37.4747 17.0627 38.0625 17.6503 38.0625 18.375C38.0625 19.0997 37.4747 19.6873 36.75 19.6875C36.0466 19.6875 35.5651 20.02 35.1846 20.7659C34.7706 21.5777 34.5625 22.7648 34.5625 24.0625C34.5625 24.7874 33.9749 25.375 33.25 25.375C32.5251 25.375 31.9375 24.7874 31.9375 24.0625C31.9375 22.7648 31.7295 21.5777 31.3154 20.7659C30.9349 20.0201 30.4537 19.6875 29.75 19.6875C29.0251 19.6875 28.4375 19.0999 28.4375 18.375C28.4375 17.6501 29.0251 17.0625 29.75 17.0625C31.3518 17.0625 32.4991 17.836 33.25 18.9031C34.0009 17.8361 35.1484 17.0625 36.75 17.0625Z" fill="#FFF6EA"/>
<path d="M12.25 3.5C12.9747 3.5002 13.5625 4.08775 13.5625 4.8125C13.5625 5.53725 12.9747 6.1248 12.25 6.125C11.5466 6.125 11.0651 6.45751 10.6846 7.20337C10.2706 8.01525 10.0625 9.20231 10.0625 10.5C10.0625 11.2249 9.47487 11.8125 8.75 11.8125C8.02513 11.8125 7.4375 11.2249 7.4375 10.5C7.4375 9.20229 7.22946 8.01523 6.81543 7.20337C6.43492 6.45756 5.9537 6.125 5.25 6.125C4.52513 6.125 3.9375 5.53737 3.9375 4.8125C3.9375 4.08763 4.52513 3.5 5.25 3.5C6.85177 3.5 7.99905 4.27351 8.75 5.34058C9.50087 4.27357 10.6484 3.5 12.25 3.5Z" fill="#FFF6EA"/>
<path d="M24.5 3.5C25.2247 3.5002 25.8125 4.08775 25.8125 4.8125C25.8125 5.53725 25.2247 6.1248 24.5 6.125C23.7966 6.125 23.3151 6.45751 22.9346 7.20337C22.5206 8.01525 22.3125 9.20231 22.3125 10.5C22.3125 11.2249 21.7249 11.8125 21 11.8125C20.2751 11.8125 19.6875 11.2249 19.6875 10.5C19.6875 9.20229 19.4795 8.01523 19.0654 7.20337C18.6849 6.45756 18.2037 6.125 17.5 6.125C16.7751 6.125 16.1875 5.53737 16.1875 4.8125C16.1875 4.08763 16.7751 3.5 17.5 3.5C19.1018 3.5 20.2491 4.27351 21 5.34058C21.7509 4.27357 22.8984 3.5 24.5 3.5Z" fill="#FFF6EA"/>
<path d="M36.75 3.5C37.4747 3.5002 38.0625 4.08775 38.0625 4.8125C38.0625 5.53725 37.4747 6.1248 36.75 6.125C36.0466 6.125 35.5651 6.45751 35.1846 7.20337C34.7706 8.01525 34.5625 9.20231 34.5625 10.5C34.5625 11.2249 33.9749 11.8125 33.25 11.8125C32.5251 11.8125 31.9375 11.2249 31.9375 10.5C31.9375 9.20229 31.7295 8.01523 31.3154 7.20337C30.9349 6.45756 30.4537 6.125 29.75 6.125C29.0251 6.125 28.4375 5.53737 28.4375 4.8125C28.4375 4.08763 29.0251 3.5 29.75 3.5C31.3518 3.5 32.4991 4.27351 33.25 5.34058C34.0009 4.27357 35.1484 3.5 36.75 3.5Z" fill="#FFF6EA"/>
</svg>
