<svg width="42" height="42" viewBox="0 0 42 42" fill="none" xmlns="http://www.w3.org/2000/svg">
<path d="M18.835 5.25C19.3872 5.25 19.8064 5.75524 19.7493 6.30444C19.3997 9.6694 19.8703 15.6612 22.5281 14C29.5278 9.62558 36.7057 13.7251 32.1514 26.25C28.6515 35.8747 19.0264 35.2916 14.6514 28.875C13.5969 29.6662 11.8765 32.0299 12.5887 35.5776C12.7061 36.1631 12.2852 36.75 11.688 36.75H9.89873C9.59146 36.75 9.30154 36.5906 9.16386 36.3159C7.4288 32.8515 8.95075 28.2086 12.0281 26.25C15.2361 24.2085 17.2781 23.6248 17.2781 17.5C17.2781 14.6312 14.8294 13.2224 15.4512 6.03101C15.4896 5.5868 15.865 5.25003 16.3108 5.25H18.835Z" fill="#FFF6EA"/>
</svg>
