<svg width="42" height="42" viewBox="0 0 42 42" fill="none" xmlns="http://www.w3.org/2000/svg">
<path fill-rule="evenodd" clip-rule="evenodd" d="M5.79337 21.3214C7.14206 16.5408 12.5683 10.5827 27.1565 12.2035C28.4174 12.3436 29.7364 12.4714 30.9014 11.9691C32.6607 11.2106 33.3762 9.81896 33.9422 8.71794C34.5033 7.62651 34.9175 6.82068 36.0563 7.2004C38.6815 8.07577 37.9813 31.5254 21.1813 34.3254C7.04936 36.6807 4.30969 30.9459 4.83756 26.2873C5.02657 24.6192 5.33756 22.9371 5.79337 21.3214ZM28.4798 16.238C28.1556 15.5896 27.3672 15.3268 26.7189 15.651C26.1946 15.9131 25.9224 16.4788 26.0089 17.0286C25.9869 17.13 25.9384 17.2943 25.8491 17.5076C25.6567 17.9671 25.3167 18.5554 24.8082 19.1087C24.0592 19.9239 22.9374 20.679 21.3024 20.8289C21.5013 20.1315 21.6184 19.3818 21.6184 18.5749C21.6184 17.85 21.0307 17.2624 20.3059 17.2624C19.581 17.2624 18.9934 17.85 18.9934 18.5749C18.9934 19.9725 18.4759 21.1741 17.6922 22.317C17.1185 23.1536 16.4736 23.8698 15.8087 24.6082C15.5939 24.8468 15.3766 25.0882 15.1593 25.3362C13.254 25.6666 11.2959 26.2509 9.89729 27.2921C9.31584 27.7249 9.19537 28.5472 9.62822 29.1286C10.0611 29.7101 10.8833 29.8305 11.4648 29.3977C12.581 28.5668 14.5087 28.0361 16.67 27.7649C18.7776 27.5003 20.8792 27.5083 22.1484 27.5956C22.8715 27.6453 23.4981 27.0994 23.5479 26.3763C23.5976 25.6531 23.0517 25.0265 22.3286 24.9768C21.4712 24.9178 20.2974 24.8917 18.9936 24.9447C19.2941 24.5768 19.5879 24.1941 19.8571 23.8015C19.9336 23.69 20.009 23.5765 20.083 23.4611C23.1777 23.6573 25.3659 22.3814 26.7411 20.8849C27.4722 20.0893 27.9707 19.2374 28.2705 18.5212C28.4197 18.1647 28.5303 17.8166 28.591 17.5037C28.621 17.3488 28.6442 17.1751 28.6453 16.9973C28.6461 16.8557 28.6366 16.5516 28.4798 16.238Z" fill="#FFF6EA"/>
</svg>
