<svg width="42" height="42" viewBox="0 0 42 42" fill="none" xmlns="http://www.w3.org/2000/svg">
<path d="M27.5362 5.11425C27.4613 4.39325 26.8161 3.86949 26.0951 3.94439C25.3742 4.01928 24.8504 4.66448 24.9253 5.38547C25.0232 6.32837 24.6034 9.01508 21.6105 10.6933C20.8964 11.0937 20.308 11.5601 19.8276 12.0681C19.6666 11.7064 19.4135 11.3936 19.1006 11.1421C17.6016 9.93776 15.29 9.0944 12.0707 9.528C10.024 9.80368 8.90446 9.87034 8.32623 9.90478C8.24096 9.90985 8.16737 9.91424 8.1044 9.91848L8.0897 9.91946C7.9974 9.92556 7.80196 9.93848 7.63006 9.98163C7.57263 9.99604 7.47118 10.0247 7.35538 10.0802C7.25054 10.1305 7.03433 10.2494 6.85377 10.4933C6.63897 10.7834 6.55276 11.1457 6.61005 11.4979C6.65812 11.7933 6.79275 11.9955 6.85961 12.0854C6.98145 12.2493 7.12072 12.3555 7.15283 12.38L7.15636 12.3827C7.20177 12.4176 7.25022 12.4515 7.27533 12.469L7.28 12.4722C7.34167 12.5153 7.38365 12.5449 7.42947 12.582C7.4707 12.6154 7.51393 12.6462 7.5589 12.6744C9.50683 13.8937 12.8967 15.12 17.2495 15.3506C17.5531 15.3667 17.8515 15.3359 18.1337 15.2624C18.1233 15.3076 18.1134 15.3528 18.1039 15.398C17.8003 16.8453 17.9524 18.2426 18.2332 19.2498H10.4999C9.53344 19.2498 8.74994 20.0333 8.74994 20.9998V21.163C8.74994 22.2175 8.86907 23.2685 9.10506 24.2963L11.7428 35.7831C12.1078 37.3729 13.5228 38.4998 15.154 38.4998H25.0959C26.7271 38.4998 28.142 37.3729 28.5071 35.7831L31.1448 24.2963C31.3808 23.2686 31.4999 22.2175 31.4999 21.163V20.9998C31.4999 20.0333 30.7164 19.2498 29.7499 19.2498H20.9216C20.9216 19.1034 20.897 18.9546 20.845 18.8089C20.6192 18.1759 20.4365 17.0642 20.673 15.937C20.7997 15.333 21.0453 14.7228 21.482 14.1656C21.858 14.6248 22.3931 14.9633 23.0133 15.1146C28.8523 16.539 33.7757 16.181 36.7066 15.3104C36.7575 15.2952 36.8074 15.2771 36.856 15.2559C36.9414 15.2188 37.0171 15.192 37.1092 15.1595L37.1154 15.1573C37.154 15.1437 37.2187 15.1208 37.2792 15.0964L37.2837 15.0945C37.3272 15.0771 37.4956 15.0094 37.6607 14.881C37.7508 14.8109 37.9357 14.6507 38.0616 14.3775C38.2116 14.0522 38.2253 13.6787 38.0954 13.3403C37.986 13.0557 37.8083 12.8819 37.719 12.8039C37.6205 12.7179 37.528 12.6616 37.4735 12.6306C37.3051 12.535 37.0951 12.4613 36.9768 12.4198L36.9635 12.4151C36.8862 12.388 36.7955 12.3569 36.6902 12.3209C35.9725 12.075 34.5735 11.5958 32.0773 10.5274C30.0192 9.64652 28.173 9.31863 26.5657 9.35042C27.4488 7.7252 27.6401 6.11375 27.5362 5.11425Z" fill="#FFF6EA"/>
</svg>
