<svg width="42" height="42" viewBox="0 0 42 42" fill="none" xmlns="http://www.w3.org/2000/svg">
<path d="M24.7699 11.1974L25.9327 8.17429C26.4593 6.80511 28.3112 6.59979 29.125 7.82038C29.4603 8.32343 30.0249 8.6256 30.6295 8.6256L30.9559 8.6256C32.2914 8.6256 33.3741 9.70824 33.3741 11.0437V11.3702C33.3741 11.9748 33.6763 12.5393 34.1793 12.8747C35.3999 13.6884 35.1946 15.5404 33.8254 16.067L30.8022 17.2298C30.2908 15.8979 29.4982 14.6493 28.4243 13.5754C27.3504 12.5015 26.1018 11.7088 24.7699 11.1974Z" fill="#FFF6EA"/>
<path fill-rule="evenodd" clip-rule="evenodd" d="M14.8125 27.1871C18.2296 30.6042 23.7698 30.6042 27.1869 27.1871C30.604 23.77 30.604 18.2298 27.1869 14.8128C23.7698 11.3957 18.2296 11.3957 14.8125 14.8128C11.3954 18.2298 11.3954 23.77 14.8125 27.1871ZM23.7839 18.2157C22.2462 16.6781 19.7532 16.6781 18.2155 18.2157C16.6778 19.7534 16.6778 22.2465 18.2155 23.7842C19.7532 25.3219 22.2462 25.3219 23.7839 23.7842C24.2965 23.2716 24.2965 22.4406 23.7839 21.9281C23.2714 21.4155 22.4403 21.4155 21.9278 21.9281C21.4152 22.4406 20.5842 22.4406 20.0716 21.9281C19.5591 21.4155 19.5591 20.5845 20.0716 20.0719C20.5842 19.5593 21.4152 19.5593 21.9278 20.0719C22.4403 20.5845 23.2714 20.5845 23.7839 20.0719C24.2965 19.5593 24.2965 18.7283 23.7839 18.2157Z" fill="#FFF6EA"/>
<path d="M13.5752 28.4244C14.6491 29.4983 15.8977 30.2909 17.2295 30.8023L16.0668 33.8254C15.5402 35.1946 13.6882 35.3999 12.8745 34.1793C12.5391 33.6763 11.9745 33.3741 11.3699 33.3741L11.0435 33.3741C9.708 33.3741 8.62535 32.2915 8.62535 30.956L8.62535 30.6296C8.62535 30.025 8.32319 29.4604 7.82013 29.125C6.59955 28.3113 6.80487 26.4593 8.17405 25.9327L11.1972 24.77C11.7086 26.1018 12.5013 27.3505 13.5752 28.4244Z" fill="#FFF6EA"/>
</svg>
