<svg width="1200" height="720" viewBox="0 480 1200 720" fill="none" xmlns="http://www.w3.org/2000/svg">
<g clip-path="url(#clip0_8_41723)">
<path d="M1200 0H0V798.462H1200V0Z" fill="url(#paint0_radial_8_41723)" opacity="0"/>
<path d="M727.524 743.892C798.848 743.892 856.668 686.072 856.668 614.748C856.668 543.424 798.848 485.604 727.524 485.604C656.2 485.604 598.38 543.424 598.38 614.748C598.38 686.072 656.2 743.892 727.524 743.892Z" fill="#FFF6EA"/>
<path d="M527.748 687.894C519.954 680.652 511.692 674.202 503.4 667.542C496.356 661.884 486.384 655.272 479.238 649.764C472.182 644.328 472.86 644.832 464.916 648.36C456.402 652.14 443.466 657.036 441.066 660.228C438.408 663.756 422.19 672.348 412.884 676.938C403.452 681.594 386.748 667.8 371.262 663.618C363.738 661.584 338.652 690.012 327.588 699.576C322.836 703.68 326.148 768.294 326.148 768.294L551.394 764.658C551.394 764.658 542.046 728.274 543.816 701.298C544.026 698.022 530.316 690.282 527.748 687.894Z" fill="#FCC100"/>
<path opacity="0.83" d="M483.552 653.682C480.996 653.682 479.292 650.442 473.664 647.718C475.2 649.08 477.072 652.662 477.582 653.682C478.44 655.398 478.776 658.968 476.07 664.032C483.432 657.858 495.138 663.228 496.056 663.168C493.86 661.074 489.918 660.852 488.316 658.284L483.552 653.682Z" fill="#F3E4CD"/>
<path opacity="0.83" d="M370.896 663.066C371.058 664.11 375.709 666.576 376.591 667.458C377.605 668.478 377.322 669.492 378.216 670.71C377.4 671.118 375.942 671.526 374.322 671.478C377.814 672.174 381.511 674.154 383.671 673.722C384.079 673.638 391.074 678.57 394.896 680.502C394.812 679.74 394.891 679.248 394.813 678.678C397.447 678.45 398.004 678.828 400.632 679.128C402.816 679.374 406.938 679.968 406.938 679.968C406.938 679.968 400.303 677.376 397.405 676.074C395.161 675.066 393.157 673.926 390.907 672.984C388.933 672.162 383.748 670.71 383.1 670.056C380.826 668.334 379.519 667.824 378.793 666.804C378.781 666.804 373.662 664.692 370.896 663.066Z" fill="#F3E4CD"/>
<mask id="mask0_8_41723" style="mask-type:luminance" maskUnits="userSpaceOnUse" x="0" y="0" width="1200" height="1200">
<path d="M1200 0H0V1200H1200V0Z" fill="white"/>
</mask>
<g mask="url(#mask0_8_41723)">
<path d="M1220.21 810.978C1219.45 813.426 -47.4002 808.386 -48.2642 805.794C-45.8102 797.304 -37.0862 758.244 -28.4342 721.794C-20.7842 689.544 -13.2002 659.34 -10.0802 654.186C-1.39816 639.822 21.5938 605.172 31.0138 591.072C36.1138 583.44 42.4678 576 48.4678 569.274C48.4678 569.274 48.4679 569.274 48.4739 569.268C56.6399 560.094 64.1338 552.234 66.8758 546.996C71.1418 538.86 82.3618 528.816 86.7478 531.882C87.3058 532.272 87.9478 532.872 88.6498 533.64C95.8918 541.554 109.944 567.552 112.98 570.066C120.72 576.492 128.664 583.086 136.206 589.686C139.248 592.338 145.116 596.364 151.188 600.108C151.254 600.144 151.314 600.18 151.38 600.222C151.926 600.558 152.478 600.894 153.024 601.224C153.162 601.308 153.306 601.392 153.444 601.476C160.662 605.802 167.688 609.444 170.13 609.648C175.32 610.074 200.394 593.94 202.968 596.826C205.422 599.562 212.046 606.042 217.95 607.632C222.33 608.808 292.026 628.494 309.492 630.642C310.8 630.804 311.82 630.87 312.492 630.816C318.108 630.384 334.458 646.914 337.116 648.966C337.692 649.404 339.474 652.896 341.946 657.348C346.218 665.034 352.548 675.6 358.29 678.342C361.206 679.722 389.58 709.788 414.246 737.166C449.868 711.318 479.526 688.08 497.106 651.852C498.84 648.276 505.374 643.56 512.532 639.57C522.486 634.026 533.64 629.88 534.768 632.142C542.04 646.692 576.672 655.158 593.052 656.424C596.874 656.718 601.86 653.682 607.002 650.454C614.094 646.002 621.492 641.184 626.562 644.286C634.332 643.308 653.118 618.288 663.474 615.144C670.428 613.026 676.632 603 684.192 596.202C687.666 593.07 691.434 590.628 695.694 589.956C697.044 589.746 698.442 589.71 699.9 589.884C702.084 590.148 705.714 597.99 710.118 605.112C710.97 606.486 711.846 607.836 712.758 609.096C714.792 611.94 716.946 614.34 719.172 615.63C720.498 616.398 721.848 616.764 723.21 616.596C724.248 616.464 725.364 616.482 726.558 616.644C728.82 611.358 731.214 605.568 733.668 599.49C748.02 563.922 764.43 518.52 769.164 507.684C769.362 505.992 770.934 503.976 773.262 501.918C773.262 501.918 773.262 501.912 773.268 501.912C779.004 496.842 789.33 491.562 795.036 490.524C797.088 490.152 798.546 490.326 798.972 491.262C808.05 511.14 825.792 549.132 831.372 552.612C836.016 555.51 902.856 576.186 910.29 575.37C912.588 575.118 934.824 581.772 935.064 582.858C937.368 593.232 1013.62 590.844 1011.68 599.562C1009.38 609.93 1024.46 617.844 1040.41 626.526C1059.06 636.678 1081.66 645.6 1091.54 650.466C1093.49 651.426 1094.95 652.23 1095.78 652.854C1100.38 656.298 1115.71 641.556 1130.11 627.12C1142.8 614.388 1154.76 601.896 1158 602.298C1161.71 602.766 1175.96 589.452 1189.67 578.28C1193.47 575.184 1197.23 572.25 1200.71 569.826C1206.44 565.824 1211.41 563.19 1214.6 563.418C1217.68 563.64 1221.45 806.958 1220.21 810.978Z" fill="#98E1C3"/>
</g>
<mask id="mask1_8_41723" style="mask-type:luminance" maskUnits="userSpaceOnUse" x="0" y="0" width="1200" height="1200">
<path d="M1200 0H0V1200H1200V0Z" fill="white"/>
</mask>
<g mask="url(#mask1_8_41723)">
<g opacity="0.84">
<path d="M75.1083 743.004C58.1703 753.612 149.748 649.95 132.726 660.678C123.66 666.39 183.204 630.666 183.204 630.666C183.204 630.666 75.7923 876.186 71.3403 857.124C71.1183 856.188 -28.1757 722.754 -28.4277 721.794C-20.7777 689.544 -13.1937 659.34 -10.0737 654.186C-1.39173 639.822 21.6003 605.172 31.0203 591.072C36.1203 583.44 42.4743 576 48.4743 569.274C41.2443 586.098 37.5903 605.544 30.0963 621.972C26.3823 630.114 19.8183 639.924 18.9663 648C17.0403 666.102 42.5763 673.158 54.6723 683.454C50.8683 691.536 59.5323 713.028 63.6483 721.668C67.1043 728.94 71.3343 736.182 75.1083 743.004Z" fill="#98E1C3"/>
<path d="M799.824 519.252C807.552 541.08 818.784 560.022 803.916 564.27C800.73 565.182 807.762 585.75 802.098 587.004C789.822 589.734 806.19 587.916 799.368 603.372C792.318 619.356 769.116 624.834 760.53 640.572C754.086 639.192 738.888 637.476 738.888 637.476C738.888 637.476 726.804 663.84 720.246 667.944C716.61 670.218 741.162 665.214 710.244 686.136C707.958 687.684 700.518 683.442 700.242 685.68C699.786 689.316 700.212 695.652 697.512 699.774C693.834 705.396 680.232 724.782 680.232 724.782C680.232 724.782 673.866 701.592 670.23 702.498C656.166 706.014 658.404 719.322 637.488 714.774C628.602 712.842 600.198 747.972 600.198 747.972L598.836 705.228L614.754 698.862L565.644 706.14C565.644 706.14 582.408 719.148 577.92 722.508C576.426 723.63 549.174 716.46 548.364 717.96C546.978 720.528 474.21 748.818 474.24 752.52C474.282 757.956 473.28 786.39 475.032 793.5C478.284 806.688 607.884 851.19 629.232 860.502C643.992 866.94 915.708 601.782 904.194 597.234C878.838 587.214 818.928 556.992 818.928 556.992C818.928 556.992 808.806 536.172 799.824 519.252Z" fill="#98E1C3"/>
<path d="M942.384 602.694C944.406 606.534 972.072 597.498 978.534 599.964C983.784 601.968 1005.14 601.326 1005.14 601.326L975.81 617.694L999.684 625.2L1026.97 649.074L1086.99 674.994C1086.99 674.994 1127.8 726.93 1136.78 736.386C1143.28 730.572 1164.01 740.988 1170.21 735.024C1171.46 733.818 1156.68 707.298 1157.25 705.696C1164.76 684.552 1152.13 680.574 1151.8 674.322C1151.57 670.152 1166.93 660.168 1166.12 656.586C1194.92 641.754 1186.58 634.758 1194.77 619.752C1194.88 625.77 1217.96 635.142 1216.22 640.722C1211.59 655.608 1207.84 670.632 1205.04 685.974C1202.14 701.886 1200.25 717.072 1201.02 733.296C1202.65 767.556 1202.57 801.852 1203.68 836.004C1182.81 829.542 1091.46 818.7 1085.39 817.65C1077.21 816.24 948.672 642.498 946.164 614.01C945.612 607.698 941.772 608.502 942.384 602.694Z" fill="#98E1C3"/>
</g>
</g>
<mask id="mask2_8_41723" style="mask-type:luminance" maskUnits="userSpaceOnUse" x="0" y="0" width="1200" height="1200">
<path d="M1200 0H0V1200H1200V0Z" fill="white"/>
</mask>
<g mask="url(#mask2_8_41723)">
<path d="M535.17 641.802C536.436 641.736 552.732 652.182 558.396 657.228C559.8 658.476 572.88 657.858 581.022 658.632C585.864 659.094 594.966 659.844 597.174 659.994C598.074 657.642 602.214 653.88 607.002 650.454C601.86 653.682 596.874 656.718 593.052 656.424C576.672 655.158 542.04 646.692 534.768 632.142C533.64 629.88 522.486 634.026 512.532 639.57C508.452 644.742 502.17 645.774 499.698 651.354C506.142 648.096 511.902 646.122 513.114 646.122C514.026 646.044 515.16 647.79 516.522 647.412C516.522 647.412 521.148 644.226 521.754 643.548C522.312 642.924 529.71 642.486 531.528 642.564C532.458 642.6 533.73 641.88 535.17 641.802Z" fill="#FFF6EA"/>
<path d="M660.906 617.592C658.86 619.98 657.096 618.528 655.674 619.752C647.376 626.916 632.13 641.946 630.666 643.854C636.192 640.668 640.11 638.334 645.528 635.568C648.33 637.206 650.652 638.112 653.208 639.87C656.25 641.964 659.52 645.024 663.774 645.444C665.448 639.264 670.974 627.366 675.114 622.71C675.672 622.08 677.16 621.462 681.138 621.234C681.78 621.198 682.458 619.032 683.982 617.31C685.362 615.756 687.024 614.082 688.488 612.888C687.714 611.712 687.21 611.184 687.21 611.184C687.21 611.184 686.514 605.634 686.514 604.062C684.948 606.342 681.48 612.84 677.796 616.638C674.664 619.866 671.28 619.086 669.618 620.952C669.06 621.582 667.578 621.69 667.578 621.69C667.578 621.69 665.064 622.62 666.468 618.726C667.434 616.056 666.696 616.566 668.742 614.406C663.972 617.478 663.402 615.654 660.906 617.592Z" fill="#FFF6EA"/>
<path d="M719.172 615.63C717.456 615.072 715.926 613.65 714.96 612.588C714.24 611.796 712.116 609.804 710.016 607.698C709.386 607.062 711.192 614.1 710.808 613.332C709.896 611.514 705.696 603.054 705.234 602.178C704.724 601.218 703.782 598.398 702.282 597.93C701.37 597.648 700.434 593.514 699.498 592.644C698.7 591.906 697.434 592.74 697.734 592.416C698.418 591.678 697.974 591.084 697.734 590.598C697.5 590.118 696.72 590.142 695.694 589.962C697.044 589.752 698.442 589.716 699.9 589.89C702.084 590.154 705.714 597.996 710.118 605.118C710.97 606.492 711.846 607.842 712.758 609.102C714.792 611.94 716.946 614.34 719.172 615.63Z" fill="#FFF6EA"/>
<path d="M136.206 589.686C139.248 592.338 145.116 596.364 151.188 600.108C145.71 596.994 139.446 595.002 134.088 591.558C128.046 587.664 122.328 581.43 115.98 578.88C116.022 580.386 116.118 581.838 116.274 583.314C113.04 582.36 109.908 578.88 107.034 576.738C103.848 574.362 82.422 562.56 79.752 559.95C80.784 559.29 98.58 568.566 99.942 568.374C96.012 559.32 92.28 548.946 89.982 539.262C89.94 537.402 85.224 538.884 83.196 539.646C85.116 537.822 87.582 536.142 88.65 533.64C95.892 541.554 109.944 567.552 112.98 570.066C120.72 576.492 128.664 583.086 136.206 589.686Z" fill="#FFF6EA"/>
<path d="M324.474 650.37C321.972 639.912 316.14 643.698 315.378 639.912C314.7 636.522 314.772 634.908 311.436 633.24C312.972 632.646 315.198 634.812 315.93 633.924C315.756 633.276 314.85 631.458 305.868 630.21C307.176 630.372 311.82 630.87 312.492 630.816C318.108 630.384 334.458 646.914 337.116 648.966C337.692 649.404 339.474 652.896 341.946 657.348C338.382 652.602 335.184 649.854 330.312 648.168C332.358 650.67 334.782 657.558 334.026 656.58C331.902 653.856 308.556 646.122 324.474 650.37Z" fill="#FFF6EA"/>
<path d="M1179.41 617.154C1177.03 619.212 1171.16 620.664 1168.87 622.434C1164.79 616.644 1161.22 608.862 1158.49 606.156C1157.25 606.678 1152.82 612.81 1151.79 615.882C1148.27 615.882 1149.06 625.092 1141.33 627.252C1139.4 630.552 1138.49 637.824 1137.92 640.668C1130.87 639.306 1121.56 643.626 1121.56 643.626C1121.56 643.626 1114.51 647.946 1120.79 648.78C1115.43 650.922 1107.4 650.946 1100.07 653.742C1099.1 654.018 1096.32 655.788 1095.18 655.674C1091.66 652.152 1090.41 650.898 1086.37 648.912C1088.18 649.74 1089.9 650.244 1091.54 650.466C1093.5 651.426 1094.96 652.23 1095.79 652.854C1100.38 656.298 1115.72 641.556 1130.11 627.12C1142.8 614.388 1154.77 601.896 1158.01 602.298C1161.71 602.766 1175.96 589.452 1189.68 578.28C1193.48 575.184 1195.27 573.63 1198.75 571.206C1190.31 579.252 1185.27 583.854 1176.81 590.988C1173.57 593.718 1169.22 599.94 1166.45 603.024C1163.39 606.432 1166.32 613.416 1168.3 620.226C1170.7 620.016 1174.57 618.918 1179.41 617.154Z" fill="#FFF6EA"/>
<path d="M785.73 511.944C786.216 514.548 787.668 516.168 786.888 518.112C785.424 521.748 779.184 523.608 777.528 527.904C774.894 534.75 774.234 543.78 772.44 551.088C769.428 549.984 767.07 546.234 764.454 544.32C761.892 550.308 759.36 556.332 757.14 562.638C754.98 568.77 752.94 575.022 750.36 581.01C746.892 589.056 744.282 599.532 738.906 606.486C750.942 602.928 764.13 596.106 775.878 589.038C763.8 597.924 748.122 605.514 736.662 615.222C735.948 611.424 739.008 601.23 736.164 598.374C735.264 598.884 728.058 614.964 727.296 615.204C741.648 579.636 764.43 518.52 769.164 507.684C769.362 505.992 770.934 503.976 773.262 501.918C773.262 501.918 773.262 501.912 773.268 501.912C774.216 501.798 775.194 501.684 776.214 501.516C781.62 500.628 786.12 497.928 791.592 496.71C789.312 500.13 787.65 502.158 786.534 506.04C785.706 508.926 785.13 508.734 785.73 511.944Z" fill="#FFF6EA"/>
</g>
<mask id="mask3_8_41723" style="mask-type:luminance" maskUnits="userSpaceOnUse" x="0" y="0" width="1200" height="1200">
<path d="M1200 0H0V1200H1200V0Z" fill="white"/>
</mask>
<g mask="url(#mask3_8_41723)">
<path d="M1219.32 805.284V1134.05H-12.5645V805.284C-12.5645 805.284 -7.20645 793.782 -4.14645 787.356C0.233547 778.152 8.33955 763.338 12.1675 760.902C17.0215 757.812 39.5095 757.374 46.1215 752.082C55.4095 744.654 80.2495 750.444 87.1255 740.178C111.426 703.908 130.878 692.328 149.184 671.952C160.47 659.388 200.004 592.176 201.474 589.53C206.382 580.692 216.756 581.004 235.572 567.774C235.944 567.516 236.466 567.594 237.12 567.948C237.12 567.954 237.12 567.954 237.12 567.954C242.43 570.852 256.104 592.158 262.32 594.234C264.966 595.116 284.766 626.466 290.832 628.332C298.476 630.684 316.992 669.774 322.026 670.38C346.458 673.314 361.332 683.994 380.352 699.396C395.964 712.044 411.288 726.174 431.952 727.2C454.758 728.34 468.978 744.324 490.26 751.968C502.902 756.51 521.982 756.774 524.256 759.204C527.202 762.342 536.922 778.278 544.77 788.592C545.574 789.654 546.36 790.65 547.116 791.574C549.786 794.832 552.09 797.1 553.62 797.496C556.692 797.4 561.545 800.43 565.181 800.736C567.575 800.94 568.68 802.866 569.154 805.284H630.569C634.733 801.216 641.939 798.924 647.525 796.5C649.931 795.462 652.037 794.4 653.471 793.158C664.661 783.504 668.591 765.474 673.883 752.388C674.903 749.862 676.247 747.45 677.825 745.134C684.119 735.81 694.049 727.956 701.489 719.67C705.887 714.774 710.351 710.04 714.905 705.45C725.267 695.028 736.127 685.332 747.875 676.086C759.377 667.032 768.185 655.368 778.055 644.694C793.043 628.482 819.929 613.848 826.925 592.86C828.053 589.488 870.917 549.834 876.677 541.992C877.391 541.572 878.111 541.2 878.849 540.888C881.537 539.724 884.369 539.226 887.267 539.244C905.573 539.352 926.399 559.962 929.423 561.09C945.341 567 950.177 588.012 956.027 600.876C957.161 603.378 968.267 614.412 970.271 619.242C976.319 633.846 983.945 633.372 997.865 636.12C1006.04 637.734 1005.94 647.7 1025.41 658.614C1030.99 661.734 1040.93 680.49 1052.6 687.612C1067.02 696.42 1087.16 699.336 1103.41 704.334C1110.86 706.62 1125.57 706.602 1125.57 706.602C1125.57 706.602 1140.4 713.178 1146.98 715.674C1147.79 715.986 1149.28 717.324 1151.12 719.256C1158.41 726.9 1171.34 743.892 1171.34 743.892C1171.34 743.892 1184.82 764.904 1196.15 781.98C1196.98 783.246 1197.81 784.488 1198.62 785.7C1202.69 791.79 1206.29 797.082 1208.63 800.28C1209.02 800.808 1211.38 801.93 1213.78 802.98C1216.52 804.18 1219.32 805.284 1219.32 805.284Z" fill="#008168"/>
</g>
<mask id="mask4_8_41723" style="mask-type:luminance" maskUnits="userSpaceOnUse" x="0" y="0" width="1200" height="1200">
<path d="M1200 0H0V1200H1200V0Z" fill="white"/>
</mask>
<g mask="url(#mask4_8_41723)">
<path d="M825.744 855.756C830.952 883.506 820.872 887.622 808.464 904.866C799.542 917.268 741.162 946.704 741.162 946.704C741.162 946.704 735.708 923.97 721.152 933.972C706.368 944.136 715.512 938.436 702.054 923.97C695.13 927.864 716.604 891.228 716.604 891.228C716.604 891.228 693.15 913.866 688.41 921.24C686.298 924.522 688.41 944.886 688.41 944.886C688.41 944.886 644.67 963.636 643.848 966.714C640.23 980.262 603.222 993.444 616.59 994.08C630.51 994.746 871.482 980.382 873.948 964.896C875.124 957.51 823.344 864.144 825.744 855.756Z" fill="#034638"/>
</g>
<mask id="mask5_8_41723" style="mask-type:luminance" maskUnits="userSpaceOnUse" x="0" y="0" width="1200" height="1200">
<path d="M1200 0H0V1200H1200V0Z" fill="white"/>
</mask>
<g mask="url(#mask5_8_41723)">
<path d="M1219.63 985.092C1219.54 985.488 1204.24 961.548 1198.63 968.532C1189.97 979.308 1128.83 933.288 1115.87 936.702C1111.87 937.752 1160.94 974.136 1156.79 974.898C1138.19 978.33 1120.58 1051.78 1102.1 1055.86C1094.18 1057.61 926.46 918.252 917.64 914.706C933.066 894.126 957.594 888.942 975.93 872.682C984.954 864.678 993.996 838.476 977.628 826.656C972.72 823.11 1015.76 817.32 1015.82 811.194C1015.94 800.316 993.996 772.998 993.996 772.998C993.996 772.998 1006.59 775.656 1010.37 769.356C1024.01 746.622 958.908 689.262 959.436 654.762C983.316 671.946 1065.85 707.514 1083.13 711.15C1088.1 712.2 1106.79 744.216 1110.41 747.528C1122.76 758.838 1146.58 758.886 1162.25 760.26C1166.41 747.168 1132.24 726.072 1125.87 713.874C1132.13 718.44 1142.09 718.26 1151.12 719.25C1158.41 726.894 1171.34 743.886 1171.34 743.886C1171.34 743.886 1184.82 764.898 1196.15 781.974C1196.96 783.276 1197.78 784.524 1198.62 785.694C1203.29 792.246 1208.4 796.578 1214.09 796.638C1213.96 798.768 1220.04 983.082 1219.63 985.092Z" fill="#034638"/>
</g>
<mask id="mask6_8_41723" style="mask-type:luminance" maskUnits="userSpaceOnUse" x="0" y="0" width="1200" height="1200">
<path d="M1200 0H0V1200H1200V0Z" fill="white"/>
</mask>
<g mask="url(#mask6_8_41723)">
<path d="M191.388 649.08C183.204 665.448 177.066 670.332 170.244 685.23C163.59 699.756 155.55 724.056 151.194 739.368C150.006 743.55 117.012 757.512 119.082 762.306C120.726 766.116 157.05 755.046 159.63 758.352C164.328 764.364 168.564 770.388 173.544 776.136C170.886 782.16 168.03 793.56 168.21 800.19C168.366 806.082 173.106 811.086 175.62 816.774C173.076 816.516 113.616 810.738 113.616 810.738C113.616 810.738 63.8221 841.434 45.4081 866.67C39.8221 874.326 120.564 833.67 126.354 841.206C128.1 843.48 369.258 900.6 441.03 876.678C457.398 871.224 508.554 891.852 509.238 892.596C480.132 892.14 457.572 892.482 459.216 903.966C461.16 917.508 501.054 948.528 510.144 957.624C515.718 963.198 544.116 956.274 554.706 963.078C577.212 977.544 618.666 987.426 616.548 987.636C580.914 991.146 419.058 999.408 386.454 1014.92C373.26 1021.19 -2.97588 990.072 -15.5339 996.726C-23.7239 986.868 -24.4979 960.324 -22.8119 948.522C-20.7659 934.2 -12.5819 885.768 -15.9899 876.216C-21.8279 859.866 77.4601 764.352 5.83812 812.778C-5.71788 820.59 -29.7059 783.6 -17.0339 773.862C-6.41988 765.708 8.69412 758.484 20.8981 752.664C31.3381 747.684 42.5041 744.666 52.9441 739.614C66.7681 732.918 80.9041 725.61 94.3441 718.476C111.87 709.17 132.03 689.316 143.622 679.08C129.996 717.288 185.328 654.6 191.388 649.08Z" fill="#034638"/>
</g>
<mask id="mask7_8_41723" style="mask-type:luminance" maskUnits="userSpaceOnUse" x="0" y="0" width="1200" height="1200">
<path d="M1200 0H0V1200H1200V0Z" fill="white"/>
</mask>
<g mask="url(#mask7_8_41723)">
<path d="M544.77 788.592C539.97 784.416 532.578 773.724 530.166 771.63C525.264 767.364 527.01 777.24 526.302 775.266C523.434 767.256 512.712 757.29 481.512 756.852C479.628 760.728 461.274 753.894 458.55 755.262C453.876 747.474 451.512 734.418 445.59 732.528C439.908 730.71 434.904 732.528 434.904 732.528C440.358 729.342 436.83 728.982 434.448 728.436C431.622 727.788 413.76 731.844 413.76 731.844L416.034 740.712C416.034 740.712 401.61 728.64 393.75 725.25C387.018 722.34 385.11 730.026 385.11 730.026C385.11 730.026 343.728 727.296 343.5 726.162C343.5 726.162 373.782 724.092 372.828 722.298C367.356 711.978 365.994 694.206 361.002 686.604C355.482 678.192 322.5 673.338 321.666 674.556C318.27 679.536 319.302 688.146 315.474 692.25C311.802 696.18 314.61 696.606 310.188 693.048C308.982 692.076 306.666 688.344 305.574 686.916C301.656 681.774 289.278 670.008 285.06 665.46C276.192 655.908 271.644 666.144 268.236 665.232C265.41 664.476 259.854 667.302 259.854 667.302C259.854 667.302 256.116 657.474 254.01 653.934C252.096 650.718 249.498 647.508 247.344 644.448C241.494 636.162 236.676 627.33 232.914 617.97C237.84 620.472 266.742 640.494 271.158 631.74C272.67 628.758 267.9 617.01 267.252 613.614C266.046 607.296 245.448 582.078 237.12 567.96C242.43 570.858 256.104 592.164 262.32 594.24C264.966 595.122 284.766 626.472 290.832 628.338C298.476 630.69 316.992 669.78 322.026 670.386C346.458 673.32 361.332 684 380.352 699.402C395.964 712.05 411.288 726.18 431.952 727.206C454.758 728.346 468.978 744.33 490.26 751.974C502.902 756.516 521.982 756.78 524.256 759.21C527.202 762.342 536.922 778.278 544.77 788.592Z" fill="#FFF6EA"/>
</g>
<mask id="mask8_8_41723" style="mask-type:luminance" maskUnits="userSpaceOnUse" x="0" y="0" width="1200" height="1200">
<path d="M1200 0H0V1200H1200V0Z" fill="white"/>
</mask>
<g mask="url(#mask8_8_41723)">
<path d="M901.758 618.918C897.9 625.248 879.348 623.88 880.77 630.666C882.972 641.142 897.918 642.186 887.592 643.854C878.886 645.264 876.51 656.706 871.302 664.476C865.938 672.48 861.744 680.922 863.934 690.72C866.064 700.266 865.44 710.106 867.114 719.922C869.25 732.444 877.422 741.498 881.268 753.516C883.17 759.468 883.542 765.576 883.884 771.468C876.648 769.662 851.844 748.776 844.392 748.446C839.1 748.206 838.71 757.728 835.296 761.634C831.63 765.834 838.332 783.258 834.84 778.002C833.052 775.308 830.256 770.196 826.2 768.45C819.972 765.768 822.516 739.944 815.742 738.438C811.65 737.526 790.554 756.03 782.586 752.814C778.506 751.164 765.498 738.018 761.478 736.614C757.026 735.06 737.052 757.29 738.744 750.864C739.23 749.016 754.866 728.28 767.016 712.35C774.822 702.12 781.188 693.87 781.188 693.87C781.188 693.87 773.94 695.91 765.672 698.226C755.4 701.106 756.288 708.054 754.812 708.42C753.408 708.768 735.108 733.884 730.806 732.702C726.792 731.598 714.492 736.008 714.492 736.008L695.088 749.952C695.088 749.952 705.474 736.386 702.288 738.204C689.796 745.344 683.148 756.312 673.638 767.082C668.856 772.488 659.856 791.778 654.852 793.596C653.064 794.532 651.516 795.606 652.95 794.364C664.14 784.71 668.598 765.468 673.89 752.382C674.91 749.856 676.254 747.444 677.832 745.128C682.056 739.488 697.062 725.088 714.912 705.444C725.274 695.022 736.134 685.326 747.882 676.08C759.384 667.026 768.192 655.362 778.062 644.688C793.05 628.476 819.936 613.842 826.932 592.854C828.06 589.482 870.924 549.828 876.684 541.986C877.398 541.566 878.118 541.194 878.856 540.882C881.544 539.718 884.376 539.22 887.274 539.238C885.708 543.984 886.122 552.81 885.894 556.056C885.492 561.792 883.5 571.116 885.792 576.408C887.664 580.746 891.282 583.794 892.95 588.516C894.426 592.698 896.106 596.298 898.536 600.132C900.252 602.844 903.78 605.574 905.16 608.202C907.416 612.51 904.308 614.73 901.758 618.918Z" fill="#FFF6EA"/>
</g>
<mask id="mask9_8_41723" style="mask-type:luminance" maskUnits="userSpaceOnUse" x="0" y="0" width="1200" height="1200">
<path d="M1200 0H0V1200H1200V0Z" fill="white"/>
</mask>
<g mask="url(#mask9_8_41723)">
<path d="M1210.45 1107.75V1210.45H-10.4521V1102.96C89.3399 1036.27 323.544 989.448 596.556 989.448C876.06 989.448 1114.88 1038.52 1210.45 1107.75Z" fill="#14433D"/>
</g>
<mask id="mask10_8_41723" style="mask-type:luminance" maskUnits="userSpaceOnUse" x="0" y="0" width="1200" height="1200">
<path d="M1200 0H0V1200H1200V0Z" fill="white"/>
</mask>
<g mask="url(#mask10_8_41723)">
<path d="M785.196 1224.1H405.33C362.34 1175.36 441.378 1128.56 475.896 1104.27C500.154 1087.2 525.432 1070.7 546.846 1050.04C564.168 1033.32 581.106 1012.19 565.182 988.086V802.782C565.182 801.306 565.728 799.956 566.64 798.93C567.45 798 568.566 797.328 569.826 797.07C570.21 796.986 570.612 796.944 571.02 796.944H631.644C632.268 796.944 632.868 797.04 633.432 797.226C635.34 797.838 636.81 799.398 637.302 801.348C637.422 801.804 637.482 802.284 637.482 802.782V988.014C668.904 1002.12 692.1 1016.05 707.97 1048.85C716.406 1066.31 716.226 1085.39 714.882 1104.27C713.562 1122.79 711.498 1141.69 717.378 1159.69C727.656 1191.13 757.578 1209.5 785.196 1224.1Z" fill="url(#paint1_linear_8_41723)"/>
</g>
<mask id="mask11_8_41723" style="mask-type:luminance" maskUnits="userSpaceOnUse" x="0" y="0" width="1200" height="1200">
<path d="M1200 0H0V1200H1200V0Z" fill="white"/>
</mask>
<g mask="url(#mask11_8_41723)">
<path d="M568.968 998.244C561.516 1001.29 555.102 996.786 549.588 995.568C545.754 997.284 539.496 999.906 535.524 1000.43C524.886 1001.83 514.092 1001.5 503.448 999.894C501.492 999.6 495.462 999.654 494.238 998.58C492.24 996.822 487.164 996.6 486.93 994.158C486.132 994.872 486.03 995.046 485.262 995.496C484.914 995.7 476.43 998.628 469.092 999C462.288 999.336 455.448 999.666 448.596 999.912C441.306 1000.18 433.998 1000.35 426.72 1000.36C399.066 1000.42 372.63 1003.01 345.09 1004C326.766 1004.67 310.05 1009.19 292.512 1011.28C272.508 1013.65 252.654 1021.72 232.86 1026.13C221.196 1028.74 209.064 1029.79 197.442 1032.05C194.034 1032.73 185.124 1036.98 180.84 1035.19C171.582 1041.19 162.84 1048.1 154.662 1055.55L-4.76411 1069.76L-47.0581 1073.54C-44.4481 1064.32 -39.9601 1056.47 -34.6861 1048.75C-30.0301 1041.93 -24.7621 1035.22 -19.6381 1027.76C-16.8421 1023.69 -14.0821 1019.4 -11.4961 1014.74C12.0779 972.342 -6.09611 1003.48 23.8079 976.902C26.4239 974.58 48.6119 931.95 53.4719 925.986C70.5239 890.784 68.5979 902.676 92.3579 887.856C95.8319 885.69 102.018 880.326 110.268 880.098C113.508 880.014 122.484 864.858 124.704 863.13C125.586 862.446 128.574 861.714 133.05 860.922C158.25 856.452 230.532 850.188 237.984 841.614C243.654 835.086 252.72 832.428 254.874 827.664C257.028 822.912 287.178 829.506 292.068 829.032C308.208 846.588 336.132 865.032 350.946 863.796C354.69 862.146 388.308 886.644 391.386 889.248C420.846 914.172 461.946 913.476 470.346 937.068C473.55 946.062 485.826 960.936 497.4 973.758C498.372 972.708 500.262 970.782 500.55 970.182C502.032 967.11 512.496 966.762 519.762 967.908C525.804 968.868 534.744 971.292 539.718 974.97C541.5 976.284 543.114 978.84 544.8 980.424C546.582 982.104 548.508 983.37 550.476 984.588C551.94 982.596 552.978 979.938 555.618 979.572C557.604 979.296 560.952 982.8 564.21 985.338C566.328 986.988 569.094 989.202 569.274 990.21C569.976 994.206 569.766 996.534 568.968 998.244Z" fill="#14433D"/>
</g>
<mask id="mask12_8_41723" style="mask-type:luminance" maskUnits="userSpaceOnUse" x="0" y="0" width="1200" height="1200">
<path d="M1200 0H0V1200H1200V0Z" fill="white"/>
</mask>
<g mask="url(#mask12_8_41723)">
<path d="M350.088 993.996C347.142 996.078 452.136 998.154 448.596 999.912C441.306 1000.18 433.998 1000.35 426.72 1000.36C399.066 1000.42 372.63 1003.01 345.09 1004C326.766 1004.67 310.05 1009.19 292.512 1011.28C272.508 1013.65 252.654 1021.72 232.86 1026.13C221.196 1028.74 209.064 1029.79 197.442 1032.05C194.034 1032.73 185.124 1036.98 180.84 1035.19C171.582 1041.19 162.84 1048.1 154.662 1055.55L-4.76388 1069.76C-8.32788 1062.04 83.3881 1004.2 80.8861 996.726C79.1461 991.536 18.0661 998.286 16.3141 991.272C19.1101 987.198 -14.0819 1019.4 -11.4959 1014.74C12.0781 972.342 -6.09588 1003.48 23.8081 976.902C26.4241 974.58 48.6121 931.95 53.4721 925.986C70.5241 890.784 68.5981 902.676 92.3581 887.856C95.8321 885.69 102.018 880.326 110.268 880.098C113.508 880.014 122.484 864.858 124.704 863.13C125.586 862.446 128.574 861.714 133.05 860.922C133.728 862.758 136.626 867.12 137.658 868.92C142.53 877.416 104.298 908.322 113.628 909.414C144.552 913.05 168.198 907.596 168.198 907.596C168.198 907.596 181.842 936.702 181.842 942.156C181.842 954.72 302.802 917.598 303.714 922.146C304.668 926.928 276.75 956.43 296.436 967.62C315.516 978.468 329.52 986.064 350.088 993.996Z" fill="#034638"/>
</g>
<path d="M1186.35 1045.39C1183 1044.53 1166.23 1043.17 1140.76 1041.47C1120.23 1040.09 1094.04 1038.5 1064.66 1036.78C1052.5 1036.07 1064.99 1044.47 1051.9 1043.72C1029.8 1034.23 1015.52 1031.68 993.288 1029.7C981.282 1028.63 961.182 1027.81 950.376 1022.53C947.01 1020.88 933.732 1018.9 930.636 1016.74C927.156 1016.12 923.802 1015.52 920.556 1014.94C886.998 1008.89 864.552 1004.52 829.638 1003.13C823.14 1002.88 811.962 1002.53 805.884 998.682C802.5 998.688 798.732 998.358 796.884 998.442C789.558 998.778 783.072 1000.95 775.722 1000.13C773.244 999.864 764.934 1001.64 762.762 997.182C759.81 994.452 735.426 995.67 721.728 994.278C719.958 994.098 715.566 996.246 713.424 995.136C711.756 995.904 707.232 994.08 702.342 994.734C701.796 994.812 700.188 995.7 699.156 995.646C694.548 995.406 684.894 996.498 681.366 996.498C678.846 996.498 675.57 994.092 669.09 993.54C664.008 993.102 659.862 992.838 656.664 992.412C651.234 992.526 638.232 992.328 637.356 989.922C634.152 981.114 642.186 982.476 647.868 980.964C649.728 980.466 651.534 981.048 653.4 982.14C655.446 980.7 657.744 979.11 659.508 977.256C661.188 975.498 671.286 974.502 675.912 975.354C681.12 976.308 698.16 979.2 700.692 980.13C704.328 981.468 715.722 975.33 720.246 976.044C721.998 976.32 733.62 970.374 735.48 971.49C737.772 972.864 739.686 976.698 741.096 980.232C749.838 976.008 769.398 954.924 781.914 945.408C803.322 929.13 827.442 925.368 839.52 898.356C843.36 889.764 872.916 858.456 894.9 846.456C896.616 845.52 899.616 845.484 903.426 846.12C922.008 849.204 959.892 868.218 962.622 876.294C965.994 886.284 1016.74 913.134 1022.04 917.886C1036.99 931.296 1059.89 956.478 1066.99 961.602C1091.74 979.476 1120.09 984 1138.13 992.964C1143.53 995.646 1153.27 1009.43 1161.32 1023.02C1161.37 1023.1 1161.41 1023.17 1161.46 1023.25C1167.95 1034.24 1186.52 1032.7 1186.35 1045.39Z" fill="#14433D"/>
<path d="M1161.32 1023.02C1155.86 1028.04 1150.01 1032.77 1144.6 1037.9C1143.34 1039.1 1142.05 1040.29 1140.76 1041.47C1120.23 1040.09 1094.04 1038.5 1064.66 1036.78C1052.5 1036.07 1064.99 1044.47 1051.9 1043.72C1029.8 1034.23 1015.52 1031.68 993.288 1029.7C981.282 1028.63 961.182 1027.81 950.376 1022.53C947.01 1020.88 933.732 1018.9 930.636 1016.74C927.156 1016.12 923.802 1015.52 920.556 1014.94C930.9 1007.24 962.814 996.804 968.532 985.812C973.47 976.308 959.178 965.388 961.11 955.056C953.328 949.638 979.584 946.938 971.262 942.156C956.886 933.894 935.28 931.386 919.902 924.366C908.928 919.362 899.52 921.972 904.92 910.542C908.508 902.94 914.592 900.24 914.172 890.574C918.222 889.458 921.348 886.566 924.876 884.862C925.032 882.12 901.038 868.182 901.224 865.41C901.458 861.852 902.172 843.6 902.142 846.666C902.574 846.486 903 846.306 903.426 846.12C922.008 849.204 959.892 868.218 962.622 876.294C965.994 886.284 1016.74 913.134 1022.04 917.886C1036.99 931.296 1059.89 956.478 1066.99 961.602C1091.74 979.476 1120.09 984 1138.13 992.964C1143.53 995.646 1153.27 1009.43 1161.32 1023.02Z" fill="#034638"/>
<mask id="mask13_8_41723" style="mask-type:luminance" maskUnits="userSpaceOnUse" x="0" y="0" width="1200" height="1200">
<path d="M1200 0H0V1200H1200V0Z" fill="white"/>
</mask>
<g mask="url(#mask13_8_41723)">
<g opacity="0.85">
<path opacity="0.65" d="M637.482 802.782V804.654C636.6 823.428 634.692 865.824 633.39 870.006C631.638 866.412 622.326 829.23 622.326 829.23C622.326 829.23 612.822 858.75 610.806 867.882C608.976 865.188 603.144 829.002 602.922 826.2C602.742 839.298 596.304 890.064 595.65 895.17C595.968 889.452 588.294 841.716 586.704 822.564C584.418 845.766 576.996 873.99 577.464 897.438C576.516 895.698 572.274 829.674 569.58 802.248C569.244 812.73 569.31 827.568 569.124 830.436C569.124 828.558 567.654 809.442 566.64 798.93C567.45 798 568.566 797.328 569.826 797.07V797.118L577.764 839.646C577.764 839.646 583.998 813.894 586.944 796.944H587.718C588.612 810.294 592.734 851.442 594.438 854.544C594.618 846.858 600.912 812.19 602.322 808.464C602.658 811.44 611.262 854.544 611.262 854.544C611.262 854.544 621.612 817.974 623.538 812.556C624.828 814.77 632.028 846.666 632.028 846.666L637.302 801.348C637.422 801.804 637.482 802.284 637.482 802.782Z" fill="#FFF6EA"/>
<path opacity="0.75" d="M599.544 796.944C598.11 801.768 596.772 806.118 596.406 806.796C595.836 804.972 594.264 800.94 592.656 796.944H599.544Z" fill="#FFF6EA"/>
<path opacity="0.4" d="M566.862 870.858C566.91 867.522 567.954 849.684 567.99 844.35C568.026 838.422 567.57 824.526 567.126 823.458C566.484 825.522 565.38 845.658 565.902 851.508C566.328 856.278 566.22 866.058 566.862 870.858Z" fill="#F3E4CD"/>
<path opacity="0.4" d="M584.886 905.928C583.758 912.114 583.02 936.858 583.524 946.098C583.77 950.67 585.648 964.29 585.648 964.29C585.648 964.29 587.322 949.986 587.166 935.946C587.01 922.71 585.03 906.528 584.886 905.928Z" fill="#FCC100"/>
<path opacity="0.65" d="M609.402 879.708C607.776 882.738 610.05 919.752 610.746 926.724C613.548 922.692 609.03 881.058 609.402 879.708Z" fill="#FFF6EA"/>
<path opacity="0.4" d="M565.752 994.11C564.72 991.584 565.392 924.966 565.668 920.976C566.25 922.314 573.018 987.99 573.366 995.436C570.912 994.776 567.996 997.092 565.752 994.11Z" fill="#FCC100"/>
<path opacity="0.4" d="M633.432 797.226C632.022 811.122 630.774 822.942 630.66 824.52C630.42 823.968 629.286 811.698 628.014 796.944H631.644C632.268 796.944 632.868 797.04 633.432 797.226Z" fill="#F3E4CD"/>
<path opacity="0.4" d="M637.038 909.936C636.54 912.63 631.8 978.6 630.666 984.918C629.796 983.07 627.149 965.364 626.063 962.682C626.309 966.69 626.718 990.732 627.522 994.344C629.91 994.344 636.023 992.892 637.253 993.024C637.715 988.65 637.158 910.08 637.038 909.936Z" fill="#FCC100"/>
<path opacity="0.4" d="M615.293 999.126C615.257 999.012 615.227 998.886 615.191 998.754C615.239 998.904 615.275 999.03 615.293 999.126Z" fill="#F3E4CD"/>
<path opacity="0.4" d="M573.516 915.174C575.172 920.244 577.758 930.03 578.97 935.184C582.102 922.518 582.582 917.94 585.036 905.172C585.69 906.708 578.52 967.926 578.52 967.926C578.52 967.926 573.87 915.678 573.516 915.174Z" fill="#FCC100"/>
<path opacity="0.65" d="M645.744 1007.72C646.5 1006.28 644.226 1005.14 646.806 1004.15C648.186 1003.63 651.882 1006.03 652.848 1006.61C658.458 1009.99 661.752 1014.6 666.054 1019.54C673.758 1028.38 673.188 1030.33 684.468 1037.95C683.286 1036.83 680.22 1032.65 679.014 1031.51C672.528 1025.38 670.866 1019.91 661.86 1010.63C659.04 1007.72 651.654 1001.95 647.862 1000.51C642.858 998.622 647.406 1002.41 640.962 1003.93C639.174 1004.36 631.116 994.752 632.706 999.054C635.772 1007.33 626.106 992.598 626.262 994.602C626.67 999.858 636.408 1008.4 637.404 1008.7C639.096 1009.2 637.026 1003.31 643.92 1009.91C645.318 1011.25 644.952 1009.22 645.744 1007.72Z" fill="#FFF6EA"/>
<path d="M637.296 953.79C636.894 962.718 636.252 974.928 636.348 983.916C636.372 986.262 636.51 984.6 636.768 986.91C636.126 986.07 635.772 987.594 635.19 988.23C634.314 989.196 634.014 988.848 632.838 989.148C632.412 989.256 632.004 989.538 631.572 989.628C630.732 989.802 629.604 989.646 628.656 989.94C627.306 990.36 626.154 991.716 624.906 992.148C624.45 992.304 623.952 991.872 623.52 992.034C622.842 992.292 622.482 993.168 621.786 993.456C620.076 994.17 617.748 993.81 615.924 994.482C612.936 995.58 610.53 995.166 607.476 994.674C606.534 994.524 606.066 995.43 605.142 995.43C607.662 995.886 610.758 995.616 612.588 995.64C616.02 995.676 619.068 996.492 622.536 995.808C624.306 995.46 626.586 994.926 628.416 994.98C630.03 995.028 631.74 995.208 633.39 995.124C636.378 994.968 637.224 995.082 639.684 993.606C640.65 993.03 641.418 991.35 641.634 990.234C641.814 989.292 640.71 988.686 640.518 987.546C640.17 985.488 639.246 986.85 638.088 985.62C637.002 984.462 637.518 979.146 637.482 977.466C637.32 969.996 637.254 963.216 637.368 955.716C637.446 950.82 637.47 949.938 637.296 953.79Z" fill="#FFF6EA"/>
<path opacity="0.4" d="M614.664 995.436C614.238 995.334 614.238 995.502 613.806 995.31C611.376 989.748 606.864 980.358 606.864 980.358C606.864 980.358 599.088 995.364 598.944 995.436C600.51 998.112 600.84 1000.18 601.914 1002.86C603.228 1006.15 605.094 1009.12 606.678 1012.27C605.046 1010.69 603.534 1008.67 602.424 1006.67C600.78 1003.72 598.422 1001 596.454 998.262C596.562 999.018 596.754 999.924 596.73 1000.69C596.1 998.898 594.378 997.176 593.322 995.628H593.316C592.56 995.646 591.948 995.652 591.672 995.646C590.586 993.6 595.938 937.368 596.592 933.672C596.706 934.266 598.362 974.49 598.326 990.786L609.84 942.186C609.84 942.186 612.414 986.574 614.664 995.436Z" fill="#FCC100"/>
<path opacity="0.65" d="M582.024 1004.84C584.676 1008.24 584.4 1025.45 585.306 1025.55C586.842 1025.72 585.426 1006.13 588.078 1004.91C589.038 1004.47 590.568 1008.01 591.102 1007.87C591.852 1007.68 590.52 1004.2 590.274 1003.67C589.47 1001.91 590.064 996.486 588.438 997.59C585.498 999.588 584.052 1000.06 580.08 998.718C578.448 998.166 576.468 999.414 574.818 999.054C573.408 998.748 572.634 996.858 572.52 995.544C572.496 996.822 572.646 999.018 573.372 1000.13C574.062 1001.2 576.27 1001.04 577.374 1001.3C578.58 1001.59 581.088 1003.64 582.024 1004.84Z" fill="#FFF6EA"/>
<path d="M565.98 963.162C566.574 968.856 567.306 974.646 568.518 980.25C569.16 983.214 570 986.142 570.822 988.98C571.806 988.14 572.106 988.428 573.06 988.734C573.582 988.902 574.92 989.112 575.346 989.37C576.096 989.82 576.24 990.792 576.96 991.2C578.556 992.1 581.604 991.002 583.452 991.494C583.878 991.608 584.628 992.088 585.042 992.082C585.858 992.064 586.62 991.008 587.946 991.338C588.804 991.554 589.434 992.058 590.334 992.226C591.21 992.394 591.942 992.226 592.818 992.562C594.312 993.132 596.406 994.368 597.492 995.52C596.082 995.868 594.492 995.874 593.046 996.018C591.168 996.198 589.296 996.018 587.424 996.174C586.092 996.282 585.018 996.972 583.758 997.152C582.06 997.398 580.086 997.104 578.328 997.236C576.294 997.392 574.608 997.974 572.622 998.13C569.046 998.406 560.76 999.756 561.768 993.654C561.912 992.79 562.554 991.92 562.758 991.038C563.04 989.802 563.034 988.572 563.388 987.378C563.892 985.68 564.066 984.114 564.438 982.44C565.362 978.312 566.136 974.34 565.908 970.05C565.614 964.476 565.11 958.728 565.182 952.968L565.98 963.162Z" fill="#FFF6EA"/>
<path opacity="0.45" d="M573.702 1064.24C484.038 1124.68 553.95 1098.25 558.36 1114.35C561.372 1125.35 516.192 1144.83 507.918 1148.36C473.226 1163.15 402.588 1197.14 416.022 1247.08C418.902 1257.79 436.992 1241.54 444.978 1242.28C451.62 1242.9 423.3 1181.8 534.486 1143.61C591.156 1124.14 419.514 1200.75 500.136 1253.2C506.868 1257.58 517.47 1254.46 525.162 1252.52C520.728 1231.66 481.284 1239.05 489.396 1203.12C493.65 1184.27 517.932 1171.02 532.584 1161.42C549.528 1150.31 567.984 1141.13 582.51 1126.76C589.548 1119.79 597.726 1109.96 587.244 1102.19C580.05 1096.87 552.126 1095.4 564.69 1081.32C572.724 1072.32 629.532 1036.06 604.74 1019.51C617.4 1039.02 589.422 1053.64 573.702 1064.24Z" fill="#FFF6EA"/>
<path opacity="0.45" d="M659.31 1034.02C694.926 1062.77 618.294 1081.37 632.478 1105.87C637.98 1115.36 660.444 1121.67 669.54 1132.58C676.362 1140.77 659.634 1158.86 655.266 1168.09C649.782 1179.69 637.59 1195.81 640.56 1209.58C641.934 1215.97 666.126 1236.29 664.248 1223.45C660.216 1195.91 672.498 1172.81 672.498 1180.45C672.498 1190 670.224 1196.81 701.19 1228.21C710.262 1237.4 725.238 1228.41 729.9 1227.3C727.254 1214.45 704.316 1203.19 696.174 1193.68C688.224 1184.41 672.426 1168.06 674.688 1154.8C677.166 1140.25 691.956 1131.97 680.232 1117.69C673.404 1109.38 651.576 1106.57 647.946 1096.09C642.078 1079.15 676.404 1067.78 672.504 1051.76C670.764 1044.61 666.228 1038.6 659.31 1034.02Z" fill="#FFF6EA"/>
<path opacity="0.4" d="M622.476 1013.55C622.314 1013.06 622.158 1012.57 621.996 1012.07C641.4 1027.39 625.578 1055.03 615.66 1072.58C629.862 1052.31 636.228 1038.1 633.162 1021.73C631.374 1012.19 617.196 1011.5 617.928 1001.39C617.244 1006.63 618.162 1010.86 622.476 1013.55Z" fill="#FCC100"/>
<path opacity="0.45" d="M437.4 1134.97C412.236 1150.78 422.622 1145.65 422.622 1145.65C474.006 1106.77 521.28 1080.73 545.856 1058.12C568.59 1037.2 572.628 1016.98 572.232 1018.33C559.722 1060.61 539.034 1071.08 437.4 1134.97Z" fill="#FFF6EA"/>
<path opacity="0.4" d="M672.222 1010.67C699.996 1033.33 711.21 1061.55 709.56 1092.45C711.15 1062.21 708.87 1055.17 699.102 1037.88C693.192 1027.42 681.096 1017.91 672.222 1010.67Z" fill="#FCC100"/>
</g>
</g>
<mask id="mask14_8_41723" style="mask-type:luminance" maskUnits="userSpaceOnUse" x="0" y="0" width="1200" height="1200">
<path d="M1199.5 0.5V1199.5H0.5V0.5H1199.5Z" fill="white" stroke="white"/>
</mask>
<g mask="url(#mask14_8_41723)">
<path d="M1222.7 1243.54C1201.91 1263.26 704.088 1267.48 481.77 1277.46L-42.8882 1278.97C-37.1042 1215.68 -17.3942 1062.71 -11.9402 1065.63C-8.05818 1067.72 47.5438 1049.84 47.5438 1049.84C47.5438 1049.84 79.7458 1044.62 81.1318 1045.26C84.3418 1046.74 95.0698 1044.86 99.7078 1043.7C105.294 1042.3 135.504 1020.4 138.09 1019.76C143.442 1018.45 147.516 1015.77 151.428 1016.6C152.79 1016.89 158.436 1018.63 158.436 1018.63C158.436 1018.63 165.594 1021.29 167.706 1022.8C168.924 1023.67 179.886 1027.96 184.548 1029.97C193.104 1033.65 196.974 1035.66 197.34 1037.29C197.7 1038.91 201.954 1043.57 201.954 1043.57C201.954 1043.57 241.008 1050.38 256.308 1051.74C276.012 1053.48 314.1 1057.79 314.706 1061.02C315.48 1065.13 333.624 1070.99 335.676 1074.4C338.196 1078.59 368.814 1101.18 377.124 1101.1C391.95 1100.95 420.72 1131.38 434.304 1131.97C437.142 1132.09 463.254 1163.48 466.152 1168C468.558 1171.75 496.482 1192.51 493.812 1203.2C491.994 1210.46 489.792 1231.43 487.518 1249.24C572.796 1246.51 712.83 1241.14 715.554 1232.6C717.108 1227.76 726.48 1202.74 731.616 1196.13C736.776 1195.6 743.334 1189.24 749.352 1184.53C761.076 1175.38 772.566 1182.36 786.522 1181.53C800.898 1180.67 813.672 1174.93 827.454 1171.24C837.006 1168.67 854.28 1168.22 862.812 1162.55C868.584 1158.71 871.836 1149.67 875.778 1144.18C883.122 1133.97 894.276 1124.45 900.636 1114.13C903.192 1109.99 903.858 1104.35 907.95 1101.28C913.56 1097.06 927.798 1097.55 935.586 1094.78C955.218 1087.8 975.276 1080.04 996.468 1080.49C1018.86 1080.95 1021.37 1078.61 1038.71 1062.36C1047.2 1054.41 1052.39 1042.87 1061.3 1035.46C1068.74 1029.28 1072.78 1033.36 1081.63 1030.41C1096.07 1025.59 1107.45 1008.91 1121.07 1001.57C1138.78 992.034 1161.05 986.682 1176.5 973.122C1180.38 969.714 1184.03 958.314 1188.67 957.696C1193.21 957.096 1202.57 974.706 1205.26 979.656C1212.81 993.564 1227.59 1238.9 1222.7 1243.54Z" fill="#034638"/>
</g>
</g>
<defs>
<radialGradient id="paint0_radial_8_41723" cx="0" cy="0" r="1" gradientUnits="userSpaceOnUse" gradientTransform="translate(705.398 587.425) scale(824.263 824.263)"><stop stop-color="#FFF6EA"/><stop offset="0.35" stop-color="#F3E4CD"/><stop offset="0.7" stop-color="#FCC100"/><stop offset="1" stop-color="#98E1C3"/></radialGradient>
<linearGradient id="paint1_linear_8_41723" x1="584.791" y1="796.803" x2="589.378" y2="1244.52" gradientUnits="userSpaceOnUse"><stop stop-color="#FFF6EA"/><stop offset="0.45" stop-color="#F3E4CD"/><stop offset="1" stop-color="#FCC100"/></linearGradient>
<clipPath id="clip0_8_41723">
<rect width="1200" height="1200" fill="white"/>
</clipPath>
</defs>
</svg>
