<svg preserveAspectRatio="none" width="100%" height="100%" overflow="visible" style="display: block;" viewBox="0 0 33.067 32.8129" fill="none" xmlns="http://www.w3.org/2000/svg">
<g id="icon">
<path d="M20.5625 0C21.529 0 22.3125 0.783501 22.3125 1.75C22.3125 2.7165 21.529 3.5 20.5625 3.5C19.596 3.5 18.8125 2.7165 18.8125 1.75C18.8125 0.783502 19.596 0 20.5625 0Z" fill="var(--fill-0, #FFF6EA)"/>
<path d="M27.125 7.875C27.8499 7.875 28.4375 8.46263 28.4375 9.1875C28.4375 9.91237 27.8499 10.5 27.125 10.5C26.4001 10.5 25.8125 9.91237 25.8125 9.1875C25.8125 8.46263 26.4001 7.875 27.125 7.875Z" fill="var(--fill-0, #FFF6EA)"/>
<path d="M29.3125 2.625C29.3125 2.14175 28.9207 1.75 28.4375 1.75C27.9543 1.75 27.5625 2.14175 27.5625 2.625C27.5625 3.10825 27.9543 3.5 28.4375 3.5C28.9207 3.5 29.3125 3.10825 29.3125 2.625Z" fill="var(--fill-0, #FFF6EA)"/>
<path d="M31.9375 10.5C32.4207 10.5 32.8125 10.8918 32.8125 11.375C32.8125 11.8582 32.4207 12.25 31.9375 12.25C31.4543 12.25 31.0625 11.8582 31.0625 11.375C31.0625 10.8918 31.4543 10.5 31.9375 10.5Z" fill="var(--fill-0, #FFF6EA)"/>
<path fill-rule="evenodd" clip-rule="evenodd" d="M9.84548 0.285227C11.403 -0.442763 12.9634 0.699008 13.1133 2.1879H14.4375C16.6121 2.1879 18.375 3.95078 18.375 6.1254C18.375 6.85027 18.9626 7.4379 19.6875 7.4379C21.8621 7.4379 23.625 9.20078 23.625 11.3754C23.625 12.1003 24.2126 12.6879 24.9375 12.6879C27.1121 12.6879 28.875 14.4508 28.875 16.6254V17.0928C28.875 17.5595 29.2534 17.9379 29.7201 17.9379C31.8553 17.9379 33.7756 20.02 32.8109 22.3273C30.2373 28.4833 24.157 32.8129 17.0625 32.8129C7.63914 32.8129 0 25.1738 0 15.7504C0 8.90417 4.03214 3.00239 9.84548 0.285227ZM24.0624 22.7504C24.0624 21.7839 23.2789 21.0004 22.3124 21.0004C21.3459 21.0004 20.5624 21.7839 20.5624 22.7504C20.5624 23.7169 21.3459 24.5004 22.3124 24.5004C23.2789 24.5004 24.0624 23.7169 24.0624 22.7504ZM11.8124 21.0004C12.7789 21.0004 13.5624 21.7839 13.5624 22.7504C13.5624 23.7169 12.7789 24.5004 11.8124 24.5004C10.8459 24.5004 10.0624 23.7169 10.0624 22.7504C10.0624 21.7839 10.8459 21.0004 11.8124 21.0004ZM18.8124 14.0004C18.8124 13.0339 18.0289 12.2504 17.0624 12.2504C16.0959 12.2504 15.3124 13.0339 15.3124 14.0004C15.3124 14.9669 16.0959 15.7504 17.0624 15.7504C18.0289 15.7504 18.8124 14.9669 18.8124 14.0004ZM6.5624 10.5004C7.52889 10.5004 8.3124 11.2839 8.3124 12.2504C8.3124 13.2169 7.52889 14.0004 6.5624 14.0004C5.5959 14.0004 4.8124 13.2169 4.8124 12.2504C4.8124 11.2839 5.5959 10.5004 6.5624 10.5004Z" fill="var(--fill-0, #FFF6EA)"/>
</g>
</svg>
