<svg preserveAspectRatio="none" width="100%" height="100%" overflow="visible" style="display: block;" viewBox="0 0 20.125 34.125" fill="none" xmlns="http://www.w3.org/2000/svg">
<path id="icon" fill-rule="evenodd" clip-rule="evenodd" d="M18.8125 0C19.5374 0 20.125 0.587626 20.125 1.3125V3.43335C20.1249 6.4446 18.9523 9.40454 17.2351 11.9407C15.9027 13.9085 14.2082 15.6709 12.3782 17.0625C14.2082 18.4541 15.9027 20.2165 17.2351 22.1843C18.9523 24.7205 20.1249 27.6804 20.125 30.6917V32.8125C20.125 33.5374 19.5374 34.125 18.8125 34.125C18.0876 34.125 17.5 33.5374 17.5 32.8125V30.6917C17.4999 28.3505 16.5782 25.896 15.0613 23.6558C14.8527 23.3477 14.6329 23.0459 14.405 22.75H5.71997C5.49212 23.0459 5.27235 23.3477 5.06372 23.6558C4.68372 24.217 4.34191 24.7921 4.04175 25.375H10.0625C10.7874 25.375 11.375 25.9626 11.375 26.6875C11.375 27.4124 10.7874 28 10.0625 28H3.0061C2.76539 28.8792 2.63321 29.7594 2.62671 30.625H6.5625C7.28737 30.625 7.875 31.2126 7.875 31.9375C7.875 32.6624 7.28737 33.25 6.5625 33.25H2.54468C2.364 33.7588 1.88331 34.125 1.3125 34.125C0.587626 34.125 0 33.5374 0 32.8125V30.6917C0.000146311 27.6804 1.17267 24.7205 2.88989 22.1843C4.22207 20.2169 5.9155 18.454 7.74512 17.0625C5.9155 15.671 4.22207 13.9081 2.88989 11.9407C1.17267 9.40454 0.000146402 6.4446 0 3.43335V1.3125C0 0.587626 0.587626 0 1.3125 0C2.03737 0 2.625 0.587626 2.625 1.3125V3.43335C2.62515 5.77453 3.54683 8.22902 5.06372 10.4692C5.27235 10.7773 5.49212 11.0791 5.71997 11.375H14.405C14.6329 11.0791 14.8527 10.7773 15.0613 10.4692C15.4413 9.90803 15.7831 9.33295 16.0833 8.75H10.0625C9.33763 8.75 8.75 8.16237 8.75 7.4375C8.75 6.71263 9.33763 6.125 10.0625 6.125H17.1189C17.3596 5.24581 17.4918 4.36563 17.4983 3.5H13.5625C12.8376 3.5 12.25 2.91237 12.25 2.1875C12.25 1.46263 12.8376 0.875 13.5625 0.875H17.5803C17.761 0.366158 18.2417 0 18.8125 0ZM10.0625 18.6279C9.41339 19.0716 8.77962 19.5768 8.16724 20.125H11.9578C11.3454 19.5768 10.7116 19.0716 10.0625 18.6279ZM8.16724 14C8.77937 14.548 9.41367 15.0519 10.0625 15.4954C10.7113 15.0519 11.3456 14.548 11.9578 14H8.16724Z" fill="var(--fill-0, #FFF6EA)"/>
</svg>
