<svg preserveAspectRatio="none" width="100%" height="100%" overflow="visible" style="display: block;" viewBox="0 0 42 42" fill="none" xmlns="http://www.w3.org/2000/svg">
<g id="Flowers 92">
<path id="Vector" d="M32.5763 14.4267C31.9945 13.9613 31.2965 13.9613 30.5984 14.0776C30.8311 13.4959 30.9475 12.9142 30.7148 12.3325C30.4821 11.7508 29.784 11.6344 29.2023 11.5181C28.5042 11.5181 27.8062 11.6344 27.5735 12.4488C27.4571 12.7979 27.4571 13.1469 27.5735 13.4959C26.7591 13.2632 25.712 13.4959 25.363 14.3103C25.1303 14.892 25.363 15.4738 25.8283 15.8228C26.1774 16.0555 26.6427 16.1718 27.1081 16.1718C26.8754 16.4045 26.7591 16.7535 26.7591 17.1026C23.8505 20.5929 20.0112 23.3851 15.9391 25.2466C16.2882 23.3851 16.7535 21.5236 17.3353 19.7785C18.0333 17.5679 19.0804 15.4738 20.5929 13.7286C20.5929 13.845 20.7092 14.0776 20.8256 14.194C21.1746 14.892 22.1053 15.2411 22.9198 15.1247C23.6178 15.0084 24.4322 14.3103 24.5486 13.6123C24.6649 12.9142 24.3159 12.2161 23.8505 11.6344C25.1303 11.5181 27.1081 11.2854 26.9918 9.65659C26.7591 8.95853 26.1774 8.14412 25.363 8.14412C24.7812 8.14412 24.1995 8.49316 23.7342 8.84219C23.8505 8.26047 23.7342 7.67875 23.5015 7.21338C23.1524 6.63166 22.5707 6.28263 21.8727 6.39897C20.5929 6.63166 20.4765 8.14412 20.7092 9.30756C20.1275 8.95853 19.5458 8.84219 18.9641 9.07487C18.266 9.30756 17.8006 10.0056 17.8006 10.7037C17.6843 12.3325 19.4294 12.6815 20.7092 12.3325C20.5929 12.5652 20.5929 12.9142 20.5929 13.1469C20.5929 13.1469 20.4765 13.1469 20.4765 13.2632C18.9641 15.1247 17.8006 17.2189 17.1026 19.4294C16.4045 21.4073 15.9391 23.5015 15.4738 25.5957V25.4793C15.3574 25.2466 15.2411 25.0139 15.2411 24.7812C15.0084 24.1995 14.7757 23.7342 14.4267 23.2688C13.9613 22.2217 13.4959 21.1746 13.2632 20.1275C12.6815 17.917 12.5652 15.7065 12.6815 13.3796C12.9142 11.0527 13.4959 8.84219 14.4267 6.748C14.4267 6.86435 14.543 6.86435 14.543 6.98069C14.892 7.56241 15.4738 7.67875 16.1718 7.56241C17.2189 7.44606 17.917 6.51532 17.8006 5.46822C18.1497 5.58457 18.4987 5.46822 18.7314 5.35188C19.1968 5.11919 19.3131 4.77016 19.3131 4.30479C19.3131 3.83942 19.1968 3.2577 18.7314 3.02501C18.266 2.79232 17.8006 2.79232 17.3353 2.90867C17.4516 2.09426 17.4516 0.930827 16.4045 0.581797C15.8228 0.34911 15.0084 0.465453 14.543 0.930827C14.0776 1.27986 13.9613 1.86158 14.0776 2.32695C13.7286 2.21061 13.2632 2.21061 12.7979 2.32695C12.3325 2.55964 11.9835 3.2577 11.9835 3.83941C11.9835 5.11919 13.2632 5.35188 14.194 5.23554C14.194 5.35188 14.0776 5.46822 14.0776 5.70091C11.9835 9.65659 11.2854 14.4267 12.0998 18.8477C12.3325 20.0112 12.5652 21.0583 13.0306 22.2217C13.4959 23.2688 14.0776 24.3159 14.543 25.363C14.6594 25.5957 14.7757 25.8283 14.892 26.061C15.0084 26.4101 15.1247 26.6427 15.0084 26.9918C14.892 27.5735 14.7757 28.2716 14.6594 28.8533C14.4267 30.133 14.194 31.4128 13.9613 32.6926C13.9613 33.0416 13.845 33.2743 13.845 33.6234C13.1469 31.6455 11.4017 30.0167 9.88928 28.6206C9.65659 28.3879 9.19122 27.8062 8.84219 28.2716C8.6095 28.7369 8.72584 29.435 8.84219 29.9004C8.95853 31.0638 9.30756 32.1109 9.88928 33.0416C10.82 34.4378 12.4488 35.2522 13.3796 36.5319C13.2632 38.0444 13.1469 39.6732 13.1469 41.1857C13.1469 41.5347 13.7286 41.5347 13.7286 41.1857C13.7286 40.1386 13.7286 39.2078 13.845 38.1607C15.5901 38.3934 17.4516 38.5098 18.8477 37.4627C19.4294 36.9973 20.0112 36.4156 20.4765 35.8339C20.9419 35.2522 21.4073 34.5541 21.4073 33.7397C21.4073 33.6234 21.2909 33.507 21.1746 33.507C20.1275 33.507 18.9641 33.9724 17.917 34.3214C16.5209 34.9031 15.2411 35.7175 14.0776 36.6483C14.194 35.6012 14.3103 34.5541 14.4267 33.507C14.543 33.0416 14.543 32.5763 14.6594 32.1109C18.0333 32.2272 21.4073 30.133 22.6871 26.9918C22.8034 26.8754 22.5707 26.6427 22.4544 26.6427C19.6621 26.5264 16.7535 27.8062 15.0084 30.0167C15.0084 29.9004 15.0084 29.9004 15.0084 29.784C15.1247 29.2023 15.2411 28.7369 15.2411 28.1552C15.2411 27.8062 15.3574 27.5735 15.3574 27.2245C15.3574 26.9918 15.4738 26.6427 15.4738 26.4101C15.4738 26.2937 15.5901 26.061 15.5901 25.9447C19.7785 24.0832 23.6178 21.2909 26.6427 17.8006C26.7591 18.0333 26.8754 18.266 27.1081 18.4987C27.5735 18.9641 28.1552 18.8477 28.6206 18.615C29.2023 18.266 29.435 17.6843 29.6677 17.1026C30.8311 17.8006 32.5763 17.917 32.8089 16.1718C33.2743 15.4738 33.0416 14.7757 32.5763 14.4267ZM27.2245 17.1026V16.9862C27.3408 16.9862 27.2245 16.9862 27.2245 17.1026Z" fill="var(--fill-0, #FFF6EA)"/>
</g>
</svg>
