<svg preserveAspectRatio="none" width="100%" height="100%" overflow="visible" style="display: block;" viewBox="0 0 42 42" fill="none" xmlns="http://www.w3.org/2000/svg">
<g id="Flowers 89">
<path id="Vector" d="M18.1497 31.6454C19.1968 33.1579 19.8948 34.9031 20.3602 36.6482C20.3602 38.277 20.2439 39.9058 20.2439 41.5346C20.2439 41.8837 20.8256 41.8837 20.8256 41.5346C20.8256 40.2549 20.9419 39.0914 20.9419 37.8116C21.5237 36.7646 22.2217 35.7175 23.0361 34.9031C23.3852 35.7175 24.0832 36.1828 25.014 36.4155C25.9447 36.6482 27.2245 36.8809 28.0389 36.0665C28.1552 35.9501 28.1552 35.7175 28.0389 35.6011C26.9918 34.6704 25.2466 34.3213 23.7342 34.205C24.1996 33.7396 24.6649 33.2742 25.2466 32.8089C26.2937 33.3906 27.3408 33.856 28.6206 33.856C29.435 33.856 30.7148 33.7396 31.1802 32.8089C31.2965 32.6925 31.1802 32.4598 31.0638 32.4598C30.5985 32.1108 29.784 31.9945 29.2023 31.8781C28.2716 31.6454 27.4572 31.7618 26.5264 31.8781C26.9918 31.5291 27.5735 31.1801 28.0389 30.831C28.1552 30.831 28.1552 30.831 28.2716 30.831C29.784 30.133 31.9946 29.0859 31.5292 26.9917C31.5292 26.8754 31.2965 26.759 31.1802 26.759C29.435 27.4571 28.1552 28.3878 27.8062 30.2493C27.3408 30.482 26.9918 30.831 26.5264 31.0637C26.9918 29.7839 27.1081 28.2715 26.6428 26.9917C26.6428 26.8754 26.4101 26.759 26.1774 26.759C25.363 27.2244 25.014 28.3878 24.7813 29.2022C24.5486 30.2493 24.5486 31.2964 24.6649 32.3435C24.4322 32.5762 24.1996 32.6925 23.9669 32.9252C24.0832 32.4598 24.1996 31.9945 24.1996 31.5291C24.0832 30.7147 23.8505 30.133 23.3852 29.5513C23.2688 29.4349 23.0361 29.3186 22.9198 29.4349C21.5237 30.9474 21.64 32.8089 22.3381 34.554C21.7563 35.1357 21.291 35.8338 20.8256 36.5319C20.9419 33.7396 21.0583 31.0637 21.0583 28.2715C21.0583 28.2715 21.0583 28.2715 21.0583 28.1551C22.4544 24.4321 24.8976 21.4072 27.5735 18.3823C28.0389 18.615 28.6206 18.4986 28.9696 18.2659C29.5514 17.9169 30.0167 17.4515 30.2494 16.7535C30.8311 18.0332 32.1109 19.313 33.2744 18.2659C34.4378 17.2188 34.0888 15.59 32.9253 14.7756C33.9724 14.4266 35.3685 13.9612 34.7868 12.6814C34.2051 11.518 32.9253 11.7507 31.9946 12.4488C32.2273 11.169 31.8782 9.77286 30.3658 9.8892C29.3187 10.0055 28.737 11.169 28.8533 12.0997C27.8062 11.6344 26.2937 11.518 25.9447 12.7978C25.712 13.9612 26.7591 14.6593 27.9225 14.7756C27.4572 15.1247 27.1081 15.4737 26.8755 15.9391C26.6428 16.5208 26.6428 17.4515 27.1081 17.9169C24.7813 20.5928 22.5707 23.2687 21.1746 26.41C21.291 24.7812 21.291 23.1524 21.291 21.5236C21.291 21.2909 21.291 21.1745 21.291 20.9418C21.7563 16.1718 22.9198 11.518 24.4322 6.98062C24.7813 7.67868 25.363 8.26039 26.2937 8.14405C27.1081 8.02771 27.3408 7.44599 27.3408 6.86427V6.74793V6.63159C27.2245 6.16621 27.1081 5.81718 26.9918 5.35181C27.4572 5.58449 27.9225 5.70084 28.3879 5.5845C28.737 5.46815 29.086 5.23546 29.3187 5.00278C29.435 4.77009 29.5514 4.5374 29.5514 4.30472C29.5514 3.14128 28.0389 3.02494 26.8755 3.14128C27.2245 2.79225 27.4572 2.32688 27.4572 1.74516C27.5735 1.0471 27.2245 0.349038 26.6428 0.116351C26.0611 -0.116336 25.363 0.116351 24.8976 0.581725C24.4322 1.0471 24.3159 1.62882 24.1996 2.32688C23.7342 1.97785 23.1525 1.74516 22.4544 1.62882C21.8727 1.51247 20.7093 1.51247 20.3602 2.21053C20.1275 2.67591 20.2439 3.49031 20.7093 3.83934C21.291 4.30472 21.989 4.30472 22.6871 4.5374C21.8727 5.11912 20.9419 6.04987 21.8727 6.98062C22.4544 7.67868 23.3852 7.2133 24.0832 6.63159C22.8034 10.5873 21.64 14.5429 21.0583 18.615C20.8256 17.6842 20.5929 16.7535 20.3602 15.8227C19.6622 13.8449 18.8478 11.867 17.917 10.0055C18.3824 10.0055 18.6151 9.19114 18.6151 8.49308C18.6151 7.79502 18.266 7.2133 17.8007 6.63159C18.8478 6.74793 20.3602 6.3989 20.0112 5.23546C19.6622 3.95569 18.1497 4.18837 16.9863 4.5374C17.2189 3.95569 17.568 3.25763 17.3353 2.55956C17.1026 1.97785 16.5209 1.51247 15.8228 1.51247C14.543 1.74516 14.194 3.25763 14.4267 4.5374C13.3796 4.07203 11.8671 4.07203 11.4018 5.23546C10.9364 6.51524 12.0998 7.09696 13.2633 7.2133C12.6816 7.91136 12.3325 9.19114 13.1469 9.65652C13.7286 10.0055 14.3104 9.77286 14.7757 9.42383C15.0084 9.19114 15.2411 8.95846 15.3575 8.60943C15.5901 9.42383 16.0555 10.2382 16.8699 10.2382C18.6151 13.7285 20.1275 17.3352 20.3602 21.1745C20.3602 21.2909 20.3602 21.2909 20.3602 21.4072C20.3602 22.1053 20.3602 22.9197 20.3602 23.6177C19.7785 22.2216 18.6151 20.8255 17.4516 19.4294C17.6843 18.964 17.6843 18.3823 17.4516 17.9169C17.2189 17.4515 16.8699 16.9862 16.4045 16.7535C16.8699 16.6371 17.2189 16.5208 17.568 16.2881C18.0334 15.9391 18.266 15.241 18.0334 14.7756C17.568 13.6122 16.2882 14.0776 15.3575 14.5429C15.5901 13.4959 15.7065 11.9834 14.543 11.867C13.1469 11.7507 13.0306 13.6122 13.0306 14.7756C11.9835 14.4266 10.5874 14.4266 10.122 15.59C9.88931 16.0554 10.122 16.7535 10.5874 16.9862C11.0527 17.3352 11.7508 17.3352 12.4489 17.3352C11.7508 18.1496 11.2854 19.4294 12.2162 20.0111C13.1469 20.5928 13.9613 19.6621 14.3104 18.7313C14.543 19.1967 14.7757 19.5457 15.2411 19.7784C15.8228 20.1274 16.5209 20.2438 17.1026 19.7784C18.4987 21.2909 19.7785 22.9197 20.7093 24.7812C20.7093 25.7119 20.5929 26.759 20.5929 27.6898C20.4766 29.9003 20.4766 31.9945 20.3602 34.205C20.3602 34.3213 20.3602 34.554 20.3602 34.6704C19.7785 33.1579 19.0804 31.7618 18.0334 30.482C18.7314 29.9003 19.4295 29.2022 19.6622 28.3878C19.8948 27.3407 19.4295 26.2936 19.0804 25.3629C18.9641 25.1302 18.7314 25.2465 18.6151 25.3629C17.8007 26.5263 17.4516 28.1551 17.3353 29.5513C16.7536 28.8532 16.1719 28.2715 15.4738 27.8061C16.0555 26.2936 15.8228 24.3158 14.543 23.2687C14.4267 23.1524 14.0777 23.1524 14.0777 23.385C13.7286 24.5485 13.6123 25.7119 13.9613 26.759C13.496 26.41 12.9142 26.1773 12.3325 25.9446C11.9835 25.0139 11.2854 23.9668 10.471 23.5014C9.88931 23.2687 9.30759 23.036 8.72587 23.1524C8.2605 23.1524 7.56244 23.1524 7.21341 23.6177C6.74803 24.3158 8.2605 25.2465 8.72587 25.5956C9.65662 26.1773 10.8201 26.5263 11.9835 26.5263C12.7979 26.8754 13.6123 27.3407 14.3104 27.8061C12.9142 27.9224 11.5181 28.3878 10.7037 29.7839C10.5874 29.9003 10.7037 30.133 10.8201 30.133C11.7508 30.5983 12.9142 30.7147 13.9613 30.3657C14.7757 30.0166 15.3575 29.5513 15.7065 28.7368C16.2882 29.3186 16.8699 29.7839 17.3353 30.482C15.7065 30.5983 14.3104 31.2964 13.1469 32.4598C13.0306 32.5762 13.0306 32.8089 13.2633 32.9252C14.0777 33.3906 15.4738 33.2742 16.2882 33.0416C16.9863 32.8089 17.6843 32.3435 18.1497 31.6454ZM26.0611 27.5734L25.9447 27.6898C26.0611 27.6898 26.0611 27.5734 26.0611 27.5734Z" fill="var(--fill-0, #FFF6EA)"/>
</g>
</svg>
