<svg preserveAspectRatio="none" width="100%" height="100%" overflow="visible" style="display: block;" viewBox="0 0 42 42" fill="none" xmlns="http://www.w3.org/2000/svg">
<g id="Flowers 74">
<path id="Vector" d="M41.7672 20.4764C40.2547 18.8476 38.0442 17.5678 35.601 17.2188C33.1578 16.8698 30.5982 17.6842 29.0858 19.4293C31.0636 16.7534 34.0885 14.7756 38.1605 13.4958C36.0664 11.4016 31.9943 11.518 29.4348 13.2631C26.8752 14.8919 25.3628 17.6842 24.083 20.2437C22.5705 23.6177 21.2907 27.108 20.9417 30.7146C20.5927 27.108 19.3129 23.6177 17.8004 20.2437C16.637 17.5678 15.1245 14.8919 12.4486 13.2631C10.0054 11.6343 5.93341 11.4016 3.83922 13.4958C7.91125 14.7756 10.9362 16.7534 12.914 19.4293C11.4016 17.6842 8.84199 16.8698 6.39878 17.2188C3.95557 17.5678 1.86138 18.8476 0.232575 20.4764C5.119 19.5457 10.5871 21.4072 13.4957 25.1302C12.0996 23.5013 9.77274 22.6869 7.56222 23.036C5.35169 23.385 3.49019 24.8975 2.90848 26.8753C5.00266 25.4792 8.02759 25.7119 10.1218 26.9916C12.216 28.2714 13.6121 30.482 14.1938 32.6925C14.5428 33.8559 14.6592 35.0193 15.2409 36.0664C15.8226 37.1135 16.986 38.0443 18.2658 37.9279C19.1966 37.8116 20.1273 37.1135 20.4763 36.4155C20.709 35.9501 20.9417 35.3684 20.9417 34.7867C21.0581 35.3684 21.1744 35.9501 21.4071 36.4155C21.8725 37.2299 22.6869 37.9279 23.6176 37.9279C24.8974 38.0443 26.0608 37.1135 26.6425 36.0664C27.2243 35.0193 27.3406 33.8559 27.6896 32.6925C28.2714 30.482 29.5511 28.2714 31.7617 26.9916C33.8558 25.7119 36.8808 25.5955 38.975 26.8753C38.3932 24.8975 36.5317 23.385 34.3212 23.036C32.1107 22.6869 29.7838 23.5013 28.3877 25.1302C31.4126 21.4072 36.8808 19.5457 41.7672 20.4764Z" fill="var(--fill-0, #FFF6EA)"/>
<path id="Vector_2" d="M22.3379 14.0775C22.1053 11.6343 21.4072 9.30744 20.4764 7.09691C20.0111 5.93348 19.313 4.77004 18.2659 4.07198C19.1967 7.79498 19.662 11.6343 19.4294 15.3573C17.3352 12.216 14.0776 9.65647 10.0055 8.26035C15.8227 12.7977 19.8947 19.5457 21.0582 26.8753C22.2216 19.5457 25.8282 12.5651 31.2964 7.44595C27.4571 8.26035 24.1994 10.8199 22.3379 14.0775Z" fill="var(--fill-0, #FFF6EA)"/>
</g>
</svg>
