<svg preserveAspectRatio="none" width="100%" height="100%" overflow="visible" style="display: block;" viewBox="0 0 42 42" fill="none" xmlns="http://www.w3.org/2000/svg">
<g id="Flowers 36" clip-path="url(#clip0_26_36048)">
<path id="Vector" d="M12.7979 37.8116C12.7979 39.324 13.6123 40.6038 14.7758 40.9528C15.0084 41.0692 15.2411 41.0692 15.4738 41.0692C16.5209 41.0692 17.4517 40.4875 18.1497 39.5567C18.8478 38.7423 19.3132 37.4625 19.5458 36.0664C19.5458 37.5789 19.7785 38.8587 20.3602 39.7894C20.942 41.0692 22.1054 41.8836 23.2688 41.8836C23.3852 41.8836 23.3852 41.8836 23.5015 41.8836C24.7813 41.7672 25.712 40.7202 26.0611 39.2077C26.2938 38.1606 26.2938 36.8808 25.9447 35.4847C26.5265 36.8808 27.3409 37.9279 28.1553 38.626C28.8533 39.2077 29.7841 39.5567 30.4821 39.5567C30.9475 39.5567 31.4129 39.4404 31.7619 39.2077C32.809 38.626 33.2744 37.2298 32.9253 35.7174C32.6927 34.6703 32.1109 33.5069 31.2965 32.3434C32.46 33.3905 33.5071 33.9722 34.5542 34.3213C35.0195 34.4376 35.3686 34.4376 35.7176 34.4376C36.7647 34.4376 37.5791 34.0886 38.0445 33.3905C38.7425 32.3434 38.6262 30.9473 37.6954 29.6675C37.1137 28.7368 36.0666 27.9224 34.7868 27.2243C35.8339 27.5733 36.7647 27.6897 37.6954 27.6897C38.0445 27.6897 38.2771 27.6897 38.6262 27.5733C40.1386 27.3406 41.3021 26.5262 41.5348 25.2465C41.7675 23.9667 41.0694 22.8032 39.6733 21.9888C38.7425 21.4071 37.4627 21.0581 36.0666 20.9418C37.5791 20.8254 38.7425 20.36 39.6733 19.7783C40.953 18.9639 41.6511 17.6841 41.4184 16.5207C41.3021 15.939 40.953 15.3573 40.3713 15.0082C39.906 14.6592 39.2079 14.4265 38.3935 14.3102C37.3464 14.1938 36.0666 14.3102 34.6705 14.8919C35.9503 14.1938 36.9974 13.2631 37.5791 12.3323C38.3935 11.0526 38.5098 9.54009 37.8118 8.60934C37.3464 7.91128 36.532 7.56225 35.6012 7.56225C35.1359 7.56225 34.6705 7.6786 34.3215 7.79494C33.2744 8.14397 32.2273 8.84203 31.0639 9.77278C31.9946 8.60934 32.46 7.32957 32.6927 6.28247C32.809 5.58441 32.809 4.77001 32.5763 4.18829C32.3436 3.60657 31.9946 3.1412 31.4129 2.79217C31.0639 2.55948 30.5985 2.44314 30.1331 2.44314C29.3187 2.44314 28.5043 2.79217 27.6899 3.49023C26.8755 4.18829 26.1774 5.23538 25.5957 6.6315C25.9447 5.11904 25.9447 3.83926 25.5957 2.79217C25.2467 1.2797 24.1996 0.232612 23.0361 0.116268C21.7564 -7.54602e-05 20.7093 0.814329 20.0112 2.21045C19.5458 3.1412 19.3132 4.42098 19.3132 5.93344C18.9641 4.42098 18.4988 3.25754 17.8007 2.44314C17.1026 1.51239 16.0555 0.930673 15.1248 0.930673C14.8921 0.930673 14.5431 0.930673 14.3104 1.04702C13.7287 1.2797 13.2633 1.62873 12.9143 2.21045C12.5652 2.79217 12.4489 3.49023 12.4489 4.18829C12.4489 5.23538 12.7979 6.51516 13.3796 7.91128C12.4489 6.74785 11.5181 5.8171 10.5874 5.35173C10.2384 5.00269 9.5403 4.88635 8.95858 4.88635C8.14418 4.88635 7.56246 5.11904 7.09709 5.58441C6.28268 6.28247 6.05 7.79494 6.63171 9.19106C7.09709 10.2382 7.91149 11.1689 8.95858 12.216C7.67881 11.5179 6.39903 11.0526 5.35194 10.9362C4.65388 10.9362 3.83947 11.0526 3.25775 11.2852C2.67604 11.6343 2.32701 12.0996 2.09432 12.565C1.62894 13.7285 2.09432 15.1246 3.14141 16.0553C3.95581 16.7534 5.11925 17.3351 6.51537 17.8005C5.00291 17.6841 3.72313 17.8005 2.67604 18.1495C1.27991 18.6149 0.349166 19.7783 0.349166 21.0581C0.349166 22.3379 1.27991 23.385 2.79238 23.8503C3.49044 24.083 4.1885 24.1994 5.11925 24.1994C5.58462 24.1994 6.05 24.1994 6.51537 24.083C5.11925 24.5484 3.95581 25.1301 3.14141 25.9445C1.97798 26.9916 1.62894 28.3877 2.09432 29.5512C2.55969 30.4819 3.60678 31.18 5.00291 31.18C5.11925 31.18 5.35194 31.18 5.46828 31.18C6.51537 31.0636 7.79515 30.5983 9.07493 29.9002C7.91149 30.9473 7.21343 31.9944 6.74806 33.0415C6.16634 34.5539 6.39903 35.9501 7.32978 36.6481C7.67881 36.9972 8.37687 37.2298 8.95858 37.2298C9.65665 37.2298 10.2384 36.9972 10.9364 36.6481C11.8672 36.0664 12.7979 35.252 13.6123 33.9722C13.0306 35.3683 12.7979 36.7645 12.7979 37.8116ZM19.6622 30.2492C19.6622 29.9002 19.5458 29.4348 19.5458 29.0858C19.5458 28.6204 19.4295 28.2714 19.4295 27.9224C19.8949 28.0387 20.4766 28.1551 21.0583 28.1551C21.1747 28.1551 21.4073 28.1551 21.5237 28.1551C21.4073 28.5041 21.291 28.8531 21.1747 29.3185C21.0583 29.5512 20.942 29.9002 20.8256 30.2492C20.4766 31.18 20.1276 32.2271 19.8949 33.2742C19.8949 32.2271 19.7785 31.18 19.6622 30.2492ZM23.5015 30.0165C23.2688 29.6675 23.1525 29.4348 22.9198 29.0858C22.6871 28.6204 22.4544 28.2714 22.3381 28.0387C23.0362 27.9224 23.7342 27.6897 24.3159 27.3406L24.4323 28.6204C24.4323 28.9695 24.5486 29.3185 24.5486 29.6675C24.665 30.5983 24.7813 31.6454 25.014 32.6924C24.5486 31.7617 23.9669 30.8309 23.5015 30.0165ZM27.1082 28.3877C26.7591 28.155 26.4101 27.9224 26.1774 27.6897C25.8284 27.457 25.363 27.108 25.1303 26.8753C25.7121 26.4099 26.2938 25.9445 26.7591 25.3628C26.9918 25.5955 27.1082 26.0609 27.4572 26.5262C27.6899 26.8753 27.8062 27.2243 28.0389 27.5733C28.5043 28.3877 28.9697 29.3185 29.6677 30.1329C28.6206 29.5512 27.8062 28.9695 27.1082 28.3877ZM29.5514 25.3628C29.086 25.2465 28.737 25.2465 28.3879 25.1301C27.8062 25.0138 27.3409 24.8974 26.9918 24.7811C27.3409 24.1994 27.6899 23.5013 27.8062 22.8032C28.1553 23.0359 28.5043 23.2686 28.9697 23.6177C29.2024 23.8503 29.5514 23.9667 29.7841 24.1994C30.4821 24.7811 31.4129 25.3628 32.3436 25.9445C31.5292 25.7118 30.4821 25.5955 29.5514 25.3628ZM29.435 21.8725C28.8533 21.9888 28.388 22.1052 28.0389 22.1052C28.1553 21.7562 28.1553 21.4071 28.1553 20.9418C28.1553 20.5927 28.1553 20.2437 28.0389 19.8947C28.388 20.011 28.8533 20.011 29.435 20.1273C29.7841 20.2437 30.0168 20.2437 30.3658 20.36C31.2965 20.5927 32.3436 20.8254 33.5071 20.9418C32.3436 21.0581 31.2965 21.2908 30.3658 21.5235C30.1331 21.7562 29.7841 21.7562 29.435 21.8725ZM30.0168 17.8005C29.6677 18.0332 29.435 18.2659 29.086 18.4985C28.6206 18.8476 28.2716 19.0803 27.9226 19.3129C27.6899 18.6149 27.4572 17.9168 27.1082 17.3351C27.2245 17.3351 27.3409 17.2188 27.5735 17.2188L28.5043 16.9861C28.8533 16.8697 29.2024 16.8697 29.5514 16.7534C30.4821 16.5207 31.5292 16.4044 32.5763 16.0553C31.5292 16.5207 30.7148 17.2188 30.0168 17.8005ZM27.9226 14.4265C27.6899 14.7755 27.5735 15.1246 27.3409 15.4736C27.1082 15.939 26.8755 16.4044 26.6428 16.637C26.1774 16.0553 25.7121 15.59 25.1303 15.1246C25.4794 14.8919 25.8284 14.6592 26.1774 14.3102C26.4101 14.0775 26.7591 13.8448 27.1082 13.6121C27.9226 13.0304 28.737 12.4487 29.5514 11.7506C28.8533 12.6814 28.388 13.6121 27.9226 14.4265ZM24.665 12.216C24.665 12.6814 24.5486 13.0304 24.5486 13.3794L24.4323 14.6592C23.8506 14.3102 23.1525 14.0775 22.4544 13.9611C22.5708 13.6121 22.8035 13.2631 23.0361 12.9141C23.1525 12.6814 23.3852 12.3323 23.5015 11.9833C23.9669 11.1689 24.5486 10.2382 25.014 9.19106C24.7813 10.2382 24.7813 11.2852 24.665 12.216ZM20.8256 11.7506C20.942 12.0996 21.0583 12.4487 21.1747 12.6814C21.291 13.1467 21.4073 13.4958 21.5237 13.8448C21.4073 13.8448 21.1747 13.8448 21.0583 13.8448C20.4766 13.8448 20.0112 13.9611 19.5458 13.9611C19.5458 13.6121 19.5458 13.2631 19.6622 12.7977C19.6622 12.4487 19.7785 12.0996 19.7785 11.7506C19.8949 10.8199 20.0112 9.77278 20.0112 8.60934C20.1276 9.77278 20.4766 10.8199 20.8256 11.7506ZM16.9863 12.565C17.219 12.9141 17.568 13.1467 17.8007 13.3794C18.0334 13.7285 18.3824 13.9611 18.4988 14.1938C17.8007 14.4265 17.219 14.7755 16.7536 15.1246C16.6373 14.8919 16.5209 14.5429 16.4046 14.0775C16.2882 13.7285 16.1719 13.3794 16.0555 12.9141C15.8229 11.9833 15.4738 11.0526 15.0084 10.1218C15.7065 11.1689 16.4046 11.9833 16.9863 12.565ZM13.845 15.0082C14.194 15.1246 14.6594 15.3573 15.0084 15.4736C15.3575 15.59 15.7065 15.8226 15.9392 15.939C15.4738 16.4044 15.0084 16.9861 14.6594 17.5678C14.4267 17.3351 14.194 17.1024 13.9614 16.7534C13.6123 16.4044 13.147 15.939 12.7979 15.3573L12.3325 14.8919C11.9835 14.5429 11.5181 14.0775 11.0528 13.6121C12.0999 14.1938 13.0306 14.6592 13.845 15.0082ZM10.9364 18.4985C11.4018 18.4985 11.7508 18.4985 12.0999 18.4985C12.5652 18.4985 12.9143 18.4985 13.2633 18.4985C13.6123 18.4985 13.9614 18.4985 14.3104 18.4985C14.0777 19.0803 13.9614 19.7783 13.845 20.4764C13.6123 20.36 13.2633 20.2437 12.9143 20.1273C12.6816 20.011 12.3325 19.8947 11.9835 19.662C11.1691 19.3129 10.122 18.8476 9.07493 18.4985C9.77299 18.4985 10.4711 18.4985 10.9364 18.4985ZM11.9835 22.3379C12.3325 22.2215 12.6816 21.9888 12.9143 21.8725L13.7287 21.5235C13.7287 22.2215 13.9614 22.9196 14.194 23.5013C13.9614 23.5013 13.6123 23.5013 13.147 23.5013C12.7979 23.5013 12.4489 23.5013 12.0999 23.5013C11.7508 23.5013 11.5181 23.5013 11.1691 23.5013C10.5874 23.5013 9.77299 23.5013 8.95858 23.6177C10.122 23.2686 11.1691 22.8032 11.9835 22.3379ZM12.4489 26.9916L12.9143 26.4099C13.2633 25.9445 13.7287 25.5955 13.9614 25.1301C14.194 24.8974 14.4267 24.5484 14.6594 24.4321C15.0084 25.0138 15.3575 25.5955 15.8229 26.0609C15.5902 26.1772 15.2411 26.2936 14.8921 26.5262C14.5431 26.6426 14.194 26.8753 13.845 26.9916C13.0306 27.3406 12.0999 27.806 11.1691 28.2714C11.6345 27.9224 11.9835 27.457 12.4489 26.9916ZM15.9392 28.9695C16.0555 28.5041 16.1719 28.155 16.2882 27.806C16.4046 27.457 16.5209 27.108 16.6373 26.7589C17.219 27.2243 17.8007 27.457 18.3824 27.806C18.1497 28.0387 17.917 28.3877 17.568 28.7368C17.1026 29.2021 16.5209 29.9002 15.9392 30.5983C15.5902 31.0636 15.2411 31.4127 14.8921 31.9944C15.4738 30.7146 15.7065 29.7839 15.9392 28.9695Z" fill="var(--fill-0, #FFF6EA)"/>
</g>
<defs>
<clipPath id="clip0_26_36048">
<rect width="42" height="42" fill="white"/>
</clipPath>
</defs>
</svg>
