<svg preserveAspectRatio="none" width="100%" height="100%" overflow="visible" style="display: block;" viewBox="0 0 42 42" fill="none" xmlns="http://www.w3.org/2000/svg">
<g id="Flowers 75">
<path id="Vector" d="M8.49302 18.8476C9.7728 21.9889 9.7728 25.3629 11.1689 28.5041C12.4487 31.6454 15.59 34.6703 19.7783 34.903C24.1994 35.1357 27.806 32.1108 29.4348 28.9695C31.0637 25.7119 31.2963 22.2216 32.6925 18.964C34.0886 15.7063 37.2299 12.4487 41.6509 12.0997C36.8808 12.216 32.5761 13.3795 29.2022 15.241C29.3185 13.1468 29.4348 11.0526 29.5512 9.07477C27.5734 12.6814 25.7119 15.3573 24.083 17.9169C23.036 14.1939 21.5235 10.7036 20.011 7.09693C18.6149 10.2382 17.8005 13.6122 17.2188 16.8698C15.8227 13.9612 14.0775 11.1689 12.216 8.37671C12.3324 10.5872 12.565 12.5651 12.7977 14.4266C9.19108 12.3324 4.65368 11.2853 0.348975 12.0997C4.421 12.5651 7.32958 15.7063 8.49302 18.8476Z" fill="var(--fill-0, #FFF6EA)"/>
</g>
</svg>
