<svg preserveAspectRatio="none" width="100%" height="100%" overflow="visible" style="display: block;" viewBox="0 0 34.125 35.4375" fill="none" xmlns="http://www.w3.org/2000/svg">
<g id="icon">
<path d="M8.3125 27.125C9.0372 27.1252 9.625 27.7128 9.625 28.4375C9.625 29.1622 9.0372 29.7498 8.3125 29.75C7.60908 29.75 7.12758 30.0825 6.74707 30.8284C6.33307 31.6402 6.125 32.8273 6.125 34.125C6.125 34.8499 5.53737 35.4375 4.8125 35.4375C4.08763 35.4375 3.5 34.8499 3.5 34.125C3.5 32.8273 3.29196 31.6402 2.87793 30.8284C2.49742 30.0826 2.0162 29.75 1.3125 29.75C0.587626 29.75 0 29.1624 0 28.4375C0 27.7126 0.587626 27.125 1.3125 27.125C2.91427 27.125 4.06155 27.8985 4.8125 28.9656C5.56337 27.8986 6.71086 27.125 8.3125 27.125Z" fill="#0B4B4B"/>
<path d="M20.5625 27.125C21.2872 27.1252 21.875 27.7128 21.875 28.4375C21.875 29.1622 21.2872 29.7498 20.5625 29.75C19.8591 29.75 19.3776 30.0825 18.9971 30.8284C18.5831 31.6402 18.375 32.8273 18.375 34.125C18.375 34.8499 17.7874 35.4375 17.0625 35.4375C16.3376 35.4375 15.75 34.8499 15.75 34.125C15.75 32.8273 15.542 31.6402 15.1279 30.8284C14.7474 30.0826 14.2662 29.75 13.5625 29.75C12.8376 29.75 12.25 29.1624 12.25 28.4375C12.25 27.7126 12.8376 27.125 13.5625 27.125C15.1643 27.125 16.3116 27.8985 17.0625 28.9656C17.8134 27.8986 18.9609 27.125 20.5625 27.125Z" fill="#0B4B4B"/>
<path d="M32.8125 27.125C33.5372 27.1252 34.125 27.7128 34.125 28.4375C34.125 29.1622 33.5372 29.7498 32.8125 29.75C32.1091 29.75 31.6276 30.0825 31.2471 30.8284C30.8331 31.6402 30.625 32.8273 30.625 34.125C30.625 34.8499 30.0374 35.4375 29.3125 35.4375C28.5876 35.4375 28 34.8499 28 34.125C28 32.8273 27.792 31.6402 27.3779 30.8284C26.9974 30.0826 26.5162 29.75 25.8125 29.75C25.0876 29.75 24.5 29.1624 24.5 28.4375C24.5 27.7126 25.0876 27.125 25.8125 27.125C27.4143 27.125 28.5616 27.8985 29.3125 28.9656C30.0634 27.8986 31.2109 27.125 32.8125 27.125Z" fill="#0B4B4B"/>
<path d="M8.3125 13.5625C9.0372 13.5627 9.625 14.1503 9.625 14.875C9.625 15.5997 9.0372 16.1873 8.3125 16.1875C7.60908 16.1875 7.12758 16.52 6.74707 17.2659C6.33307 18.0777 6.125 19.2648 6.125 20.5625C6.125 21.2874 5.53737 21.875 4.8125 21.875C4.08763 21.875 3.5 21.2874 3.5 20.5625C3.5 19.2648 3.29196 18.0777 2.87793 17.2659C2.49742 16.5201 2.0162 16.1875 1.3125 16.1875C0.587626 16.1875 0 15.5999 0 14.875C0 14.1501 0.587626 13.5625 1.3125 13.5625C2.91427 13.5625 4.06155 14.336 4.8125 15.4031C5.56337 14.3361 6.71086 13.5625 8.3125 13.5625Z" fill="#0B4B4B"/>
<path d="M20.5625 13.5625C21.2872 13.5627 21.875 14.1503 21.875 14.875C21.875 15.5997 21.2872 16.1873 20.5625 16.1875C19.8591 16.1875 19.3776 16.52 18.9971 17.2659C18.5831 18.0777 18.375 19.2648 18.375 20.5625C18.375 21.2874 17.7874 21.875 17.0625 21.875C16.3376 21.875 15.75 21.2874 15.75 20.5625C15.75 19.2648 15.542 18.0777 15.1279 17.2659C14.7474 16.5201 14.2662 16.1875 13.5625 16.1875C12.8376 16.1875 12.25 15.5999 12.25 14.875C12.25 14.1501 12.8376 13.5625 13.5625 13.5625C15.1643 13.5625 16.3116 14.336 17.0625 15.4031C17.8134 14.3361 18.9609 13.5625 20.5625 13.5625Z" fill="#0B4B4B"/>
<path d="M32.8125 13.5625C33.5372 13.5627 34.125 14.1503 34.125 14.875C34.125 15.5997 33.5372 16.1873 32.8125 16.1875C32.1091 16.1875 31.6276 16.52 31.2471 17.2659C30.8331 18.0777 30.625 19.2648 30.625 20.5625C30.625 21.2874 30.0374 21.875 29.3125 21.875C28.5876 21.875 28 21.2874 28 20.5625C28 19.2648 27.792 18.0777 27.3779 17.2659C26.9974 16.5201 26.5162 16.1875 25.8125 16.1875C25.0876 16.1875 24.5 15.5999 24.5 14.875C24.5 14.1501 25.0876 13.5625 25.8125 13.5625C27.4143 13.5625 28.5616 14.336 29.3125 15.4031C30.0634 14.3361 31.2109 13.5625 32.8125 13.5625Z" fill="#0B4B4B"/>
<path d="M8.3125 0C9.0372 0.000204251 9.625 0.587752 9.625 1.3125C9.625 2.03725 9.0372 2.6248 8.3125 2.625C7.60908 2.625 7.12758 2.95751 6.74707 3.70337C6.33307 4.51525 6.125 5.70231 6.125 7C6.125 7.72487 5.53737 8.3125 4.8125 8.3125C4.08763 8.3125 3.5 7.72487 3.5 7C3.5 5.70229 3.29196 4.51523 2.87793 3.70337C2.49742 2.95756 2.0162 2.625 1.3125 2.625C0.587626 2.625 0 2.03737 0 1.3125C0 0.587626 0.587626 0 1.3125 0C2.91427 0 4.06155 0.773511 4.8125 1.84058C5.56337 0.773569 6.71086 0 8.3125 0Z" fill="#0B4B4B"/>
<path d="M20.5625 0C21.2872 0.000204251 21.875 0.587752 21.875 1.3125C21.875 2.03725 21.2872 2.6248 20.5625 2.625C19.8591 2.625 19.3776 2.95751 18.9971 3.70337C18.5831 4.51525 18.375 5.70231 18.375 7C18.375 7.72487 17.7874 8.3125 17.0625 8.3125C16.3376 8.3125 15.75 7.72487 15.75 7C15.75 5.70229 15.542 4.51523 15.1279 3.70337C14.7474 2.95756 14.2662 2.625 13.5625 2.625C12.8376 2.625 12.25 2.03737 12.25 1.3125C12.25 0.587626 12.8376 0 13.5625 0C15.1643 0 16.3116 0.773511 17.0625 1.84058C17.8134 0.773569 18.9609 0 20.5625 0Z" fill="#0B4B4B"/>
<path d="M32.8125 0C33.5372 0.000204251 34.125 0.587752 34.125 1.3125C34.125 2.03725 33.5372 2.6248 32.8125 2.625C32.1091 2.625 31.6276 2.95751 31.2471 3.70337C30.8331 4.51525 30.625 5.70231 30.625 7C30.625 7.72487 30.0374 8.3125 29.3125 8.3125C28.5876 8.3125 28 7.72487 28 7C28 5.70229 27.792 4.51523 27.3779 3.70337C26.9974 2.95756 26.5162 2.625 25.8125 2.625C25.0876 2.625 24.5 2.03737 24.5 1.3125C24.5 0.587626 25.0876 0 25.8125 0C27.4143 0 28.5616 0.773511 29.3125 1.84058C30.0634 0.773569 31.2109 0 32.8125 0Z" fill="#0B4B4B"/>
</g>
</svg>
