<svg preserveAspectRatio="none" width="100%" height="100%" overflow="visible" style="display: block;" viewBox="0 0 25.1461 31.5" fill="none" xmlns="http://www.w3.org/2000/svg">
<path id="icon" d="M10.4004 0C10.9526 4.23953e-06 11.3718 0.505238 11.3147 1.05444C10.9652 4.4194 11.4357 10.4112 14.0936 8.75C21.0932 4.37558 28.2711 8.47507 23.7168 21C20.2169 30.6247 10.5918 30.0416 6.21684 23.625C5.16233 24.4162 3.44192 26.7799 4.1541 30.3276C4.27155 30.9131 3.85065 31.5 3.25346 31.5H1.46416C1.15688 31.5 0.866971 31.3406 0.729294 31.0659C-1.00577 27.6015 0.516177 22.9586 3.59355 21C6.80158 18.9585 8.84355 18.3748 8.84355 12.25C8.84355 9.38124 6.39483 7.97241 7.01665 0.781006C7.05506 0.336805 7.43041 2.79995e-05 7.87627 0H10.4004Z" fill="#0B4B4B"/>
</svg>
