<svg preserveAspectRatio="none" width="100%" height="100%" overflow="visible" style="display: block;" viewBox="0 0 32.4278 27.7671" fill="none" xmlns="http://www.w3.org/2000/svg">
<path id="icon" fill-rule="evenodd" clip-rule="evenodd" d="M1.01603 14.2163C2.36472 9.43567 7.79099 3.47759 22.3792 5.09844C23.6401 5.23853 24.9591 5.36625 26.1241 4.864C27.8834 4.10553 28.5988 2.71386 29.1648 1.61284C29.7259 0.521405 30.1402 -0.284419 31.2789 0.0952937C33.9042 0.970667 33.2039 24.4203 16.4039 27.2203C2.27201 29.5756 -0.467653 23.8408 0.0602154 19.1822C0.249227 17.5141 0.560214 15.832 1.01603 14.2163ZM23.7025 9.13285C23.3783 8.4845 22.5899 8.22171 21.9416 8.54588C21.4173 8.80803 21.1451 9.37373 21.2316 9.92346C21.2096 10.0249 21.161 10.1892 21.0717 10.4025C20.8794 10.862 20.5394 11.4503 20.0309 12.0036C19.2818 12.8188 18.16 13.5739 16.525 13.7238C16.7239 13.0264 16.841 12.2767 16.841 11.4698C16.841 10.7449 16.2534 10.1573 15.5285 10.1573C14.8037 10.1573 14.216 10.7449 14.216 11.4698C14.216 12.8674 13.6986 14.069 12.9148 15.2119C12.3412 16.0485 11.6963 16.7647 11.0314 17.5031C10.8165 17.7417 10.5992 17.9831 10.3819 18.2311C8.47667 18.5615 6.51852 19.1458 5.11994 20.187C4.53849 20.6198 4.41803 21.4421 4.85088 22.0235C5.28373 22.605 6.10598 22.7254 6.68743 22.2926C7.80361 21.4617 9.73133 20.931 11.8926 20.6598C14.0002 20.3952 16.1019 20.4032 17.371 20.4905C18.0942 20.5402 18.7208 19.9943 18.7705 19.2712C18.8203 18.548 18.2744 17.9214 17.5512 17.8717C16.6938 17.8127 15.5201 17.7866 14.2163 17.8396C14.5168 17.4717 14.8105 17.089 15.0797 16.6964C15.1562 16.5849 15.2317 16.4714 15.3057 16.356C18.4004 16.5522 20.5886 15.2763 21.9638 13.7798C22.6948 12.9842 23.1934 12.1323 23.4932 11.4161C23.6424 11.0596 23.7529 10.7115 23.8136 10.3986C23.8436 10.2437 23.8669 10.07 23.8679 9.89224C23.8688 9.75062 23.8593 9.44645 23.7025 9.13285Z" fill="var(--fill-0, #FFF6EA)"/>
</svg>
