<svg preserveAspectRatio="none" width="100%" height="100%" overflow="visible" style="display: block;" viewBox="0 0 42 42" fill="none" xmlns="http://www.w3.org/2000/svg">
<g id="Leaves 83">
<path id="Vector" d="M29.0858 28.0388C28.2714 28.1551 27.457 28.2715 26.759 28.6205C26.6426 28.0388 26.2936 27.8061 25.9446 27.8061C24.5484 27.6898 21.8725 30.3657 20.9418 31.7618C20.5928 30.7147 20.3601 29.4349 20.1274 28.1551C22.5706 27.5734 25.4792 26.8754 27.8061 25.1302C28.7368 24.4322 28.9695 23.6177 28.6205 23.1524C28.5041 22.9197 28.1551 22.687 27.6897 22.8033C28.7368 21.6399 29.0858 20.4765 28.9695 19.7784C28.8532 19.4294 28.6205 19.1967 28.3878 19.0804C27.6897 18.964 26.759 19.5457 25.7119 20.8255C25.5955 20.5928 25.4792 20.4765 25.3629 20.3601C24.5484 20.1274 23.036 22.1053 20.5928 25.7119C20.3601 26.061 20.1274 26.41 19.8947 26.759C19.662 24.0831 19.662 21.5236 20.2437 19.0804C22.2216 19.5457 24.1994 18.964 26.0609 18.2659C26.759 18.0333 27.457 17.8006 28.1551 17.5679C28.7368 17.3352 29.4349 16.7535 29.2022 15.9391V15.8227C28.9695 15.59 28.7368 15.59 28.3878 15.59C30.1329 14.4266 31.4127 12.6815 31.2964 11.7507C31.2964 11.4017 31.18 11.169 30.9473 11.0527C30.3656 10.82 29.3185 11.2853 28.2714 11.9834C28.5041 11.6344 28.7368 11.2853 28.7368 10.82C28.7368 10.2382 28.3878 10.0056 28.2714 9.88922C28.0388 9.77287 27.6897 9.88922 27.3407 10.0056C27.3407 9.77287 27.2243 9.65653 27.108 9.54019C26.4099 9.19116 25.9446 9.88922 25.5955 10.3546C25.4792 10.4709 25.3629 10.7036 25.2465 10.82C24.4321 11.7507 23.8504 12.7978 23.385 13.8449C22.687 15.3574 21.8725 16.6371 20.7091 17.5679C21.2908 15.241 22.3379 12.6815 23.8504 10.1219C29.5512 6.28257 29.2022 5.23548 29.0858 5.00279C28.8532 4.88645 28.5041 4.65376 28.2714 4.65376C29.4349 3.37398 29.9002 1.86152 29.6676 0.930768C29.5512 0.465394 29.2022 0.232707 28.8532 0.116363C28.1551 1.95569e-05 27.3407 0.581737 26.4099 1.74517C26.4099 1.51248 26.2936 1.39614 26.1773 1.2798C25.9446 1.2798 25.7119 1.16345 25.4792 1.16345H25.3629C24.1994 1.74517 23.8504 3.72301 23.5014 5.46816C23.385 6.16622 23.2687 6.74794 23.036 7.21332C23.036 7.21332 23.036 7.21332 23.036 7.32966C22.9196 9.19116 22.2216 10.7036 21.4072 12.4488C21.4072 12.5651 21.2908 12.6815 21.2908 12.7978C21.5235 11.6344 21.6399 10.3546 21.8725 9.07481C22.1052 7.56235 22.3379 6.04988 22.5706 4.65376C22.3379 3.02495 22.1052 2.32689 21.5235 2.32689C20.8255 2.32689 20.2437 3.83936 20.0111 5.00279C19.7784 5.00279 19.662 5.11913 19.5457 5.11913C19.4293 5.23548 19.4293 5.23548 19.313 5.35182C19.1966 4.07204 19.0803 3.02495 18.4986 2.90861C18.2659 2.79226 18.0332 2.90861 17.9169 3.14129C17.8005 2.90861 17.6842 2.67592 17.4515 2.55958C17.2188 2.44323 16.8698 2.44323 16.6371 2.55958C16.6371 2.55958 16.6371 2.55958 16.5207 2.55958C15.7063 3.60667 15.939 5.00279 16.1717 6.28257C16.1717 6.39891 16.1717 6.39891 16.1717 6.51526C15.8227 6.39891 15.59 6.28257 15.4737 6.39891C15.241 6.6316 15.1246 6.86429 15.1246 7.32966C15.241 9.19116 17.6842 13.8449 20.2437 15.0083C19.8947 16.0554 19.5457 17.2189 19.313 18.3823C19.0803 16.0554 18.7313 14.543 18.0332 14.4266C17.8005 14.4266 17.6842 14.4266 17.4515 14.543C17.3352 14.3103 17.2188 14.0776 17.2188 13.8449C16.7534 12.6815 16.1717 11.169 15.0083 11.169H14.8919C14.4266 11.4017 14.3102 11.8671 14.3102 12.3324C13.7285 11.518 13.1468 11.0527 12.5651 11.0527C12.216 11.0527 11.9834 11.169 11.867 11.4017C11.518 11.9834 11.6343 13.1468 12.3324 14.4266C11.867 14.4266 11.518 14.543 11.4016 14.892C10.9363 16.4045 17.2188 21.7563 18.6149 22.5707C18.6149 23.7341 18.6149 24.6648 18.6149 25.7119C18.6149 25.7119 18.6149 25.5956 18.4986 25.5956C18.1496 25.0139 17.8005 24.3158 17.3352 23.7341C16.9861 23.2687 16.4044 23.036 16.0554 23.2687C15.939 23.2687 15.8227 23.3851 15.7063 23.7341C15.59 23.6177 15.4737 23.5014 15.3573 23.2687C14.7756 22.5707 14.1939 21.6399 13.2631 21.8726C12.9141 21.9889 12.7978 22.338 12.6814 22.687C12.6814 22.8033 12.6814 22.8033 12.6814 22.9197C12.0997 22.5707 11.2853 22.338 10.8199 22.5707C10.5872 22.687 10.3545 23.036 10.5872 23.7341V23.8504C12.216 25.8283 15.241 28.2715 18.6149 28.2715C18.964 30.482 19.5457 32.8089 20.4764 35.2521C18.7313 33.6233 16.7534 31.9945 15.7063 32.1108C15.4737 32.1108 15.241 32.3435 15.1246 32.5762C15.0083 32.8089 15.1246 33.0416 15.1246 33.1579C14.4266 33.0416 13.7285 33.2743 13.2631 33.7396C13.2631 33.7396 13.2631 33.7396 13.2631 33.856C13.0304 34.554 13.9612 34.9031 14.6593 35.1358C14.7756 35.1358 14.8919 35.2521 14.8919 35.2521C14.8919 35.2521 14.7756 35.2521 14.7756 35.3684C14.0775 35.7175 13.1468 36.2992 13.0304 36.8809C13.0304 37.1136 13.0304 37.3463 13.1468 37.4626C13.1468 37.4626 13.1468 37.4626 13.2631 37.579C14.1939 38.0443 15.241 37.6953 16.1717 37.3463C16.8698 37.1136 17.4515 36.8809 18.0332 36.9973C17.6842 37.3463 17.3352 37.6953 17.4515 38.0443C17.4515 38.1607 17.4515 38.277 17.6842 38.5097H17.8005C18.3822 38.5097 18.964 38.1607 19.4293 37.928C20.1274 37.579 20.7091 37.2299 21.4072 37.4626C21.4072 37.4626 21.5235 37.4626 21.5235 37.579C22.2216 39.0914 22.9196 40.3712 23.734 41.651C23.8504 41.7673 23.9667 41.8837 24.0831 41.8837C24.1994 41.8837 24.3158 41.8837 24.3158 41.7673C24.5484 41.651 24.5485 41.302 24.4321 41.0693C22.9196 38.5097 21.6399 35.8338 20.8255 33.1579C22.3379 32.5762 23.734 33.2743 25.1302 34.0887C25.9446 34.554 26.8753 35.0194 27.8061 35.2521C27.8061 35.2521 27.8061 35.2521 27.9224 35.2521C28.6205 35.1358 28.8532 34.6704 28.8532 34.4377C28.9695 33.856 28.5041 33.1579 27.9224 32.6925C28.6205 32.5762 29.4349 32.1108 29.5512 31.5291C29.5512 31.2964 29.5512 31.0637 29.2022 30.7147C30.1329 30.2493 30.831 29.4349 30.7147 28.7369C30.9473 28.5042 30.5983 27.9225 29.0858 28.0388Z" fill="var(--fill-0, #FFF6EA)"/>
</g>
</svg>
