<svg preserveAspectRatio="none" width="100%" height="100%" overflow="visible" style="display: block;" viewBox="0 0 42 42" fill="none" xmlns="http://www.w3.org/2000/svg">
<g id="Leaves 48">
<path id="Vector" d="M5.70084 36.6482C6.39891 37.1136 6.86428 37.5789 6.39891 38.5097C6.28256 38.8587 6.28256 39.2078 6.16622 39.5568C6.16622 39.7895 6.16622 40.0222 6.51525 40.1385C7.91137 40.8366 8.37675 40.6039 8.60943 39.0914C8.72578 38.3933 9.07481 38.0443 9.77287 38.0443C11.0526 37.928 12.4488 37.8116 13.7285 37.3463C15.0083 36.8809 16.0554 36.1828 16.7535 35.0194C17.3352 33.9723 16.9862 32.9252 15.9391 32.4598C15.1247 32.1108 14.3103 32.1108 13.4959 32.3435C12.7978 32.4598 12.0997 32.6925 11.2853 32.9252C11.0526 32.9252 10.82 33.0415 10.7036 32.9252C10.4709 32.6925 10.7036 32.4598 10.82 32.3435C11.169 31.4127 11.7507 30.7147 12.2161 29.9003C12.3324 29.6676 12.5651 29.5512 12.7978 29.6676C13.1468 29.7839 13.4959 29.9003 13.8449 29.9003C16.4044 30.2493 18.8477 30.0166 21.0582 28.3878C21.6399 27.9224 21.7562 27.2244 21.2909 26.6427C20.9418 26.2936 20.5928 25.9446 20.0111 25.8283C18.7313 25.7119 17.3352 25.5956 15.8227 25.9446C16.2881 25.2465 16.6371 24.8975 17.2189 24.6648C17.3352 24.6648 17.4515 24.5485 17.4515 24.5485C17.8006 24.1994 18.1496 23.385 18.8477 23.9668C18.964 23.9668 18.964 24.0831 19.0803 24.0831C19.1967 24.0831 19.1967 24.1994 19.313 24.1994C19.4294 24.1994 19.4294 24.3158 19.5457 24.3158C19.6621 24.3158 19.6621 24.4321 19.7784 24.4321C20.4765 24.6648 21.1745 25.0139 21.8726 25.2465C22.5707 25.3629 23.1524 25.4792 23.8504 25.5956C24.5485 25.7119 25.2466 25.7119 25.9446 25.5956C26.8754 25.3629 27.3407 24.6648 26.9917 23.7341C26.6427 22.5706 25.7119 22.2216 24.7812 21.8726C23.8504 21.5235 22.8033 21.6399 21.7562 21.4072C22.687 20.7091 23.3851 20.2438 24.1995 19.662C24.5485 19.4294 24.7812 19.4294 25.0139 19.662C25.8283 20.5928 26.8754 20.9418 28.0388 21.1745C29.9003 21.5235 31.5291 21.1745 32.8089 19.7784C33.3906 19.1967 33.7396 18.4986 33.5069 17.6842C33.1579 16.8698 32.5762 16.1717 31.5291 16.0554C30.7147 15.9391 29.9003 16.0554 28.9695 15.8227C30.0166 14.892 30.831 13.9612 31.7618 13.0305C31.9945 12.7978 32.2272 12.7978 32.5762 12.9141C34.205 13.7285 35.9502 13.4958 37.579 12.9141C38.9751 12.3324 40.4876 11.867 41.302 10.4709C42.1164 9.54017 41.7673 8.49307 40.7202 8.14404C40.0222 7.91136 39.4405 7.91136 38.7424 8.14404C37.928 8.37673 37.1136 8.60942 36.2992 8.8421C36.1828 8.8421 35.9502 8.95845 35.8338 8.8421C35.7175 8.72576 35.8338 8.49307 35.9502 8.37673C36.1828 8.0277 36.5319 7.56233 36.7646 7.2133C36.9972 6.86427 37.1136 6.51523 36.8809 6.28255C36.5319 5.93352 36.2992 5.58449 35.9502 5.23546C35.7175 4.88643 35.4848 5.00277 35.3684 5.3518C35.0194 5.81717 34.6704 6.51523 34.0887 6.98061C34.0887 6.39889 34.0887 5.93352 34.0887 5.58449C34.0887 4.5374 33.9723 3.4903 33.3906 2.55956C32.6925 1.39612 31.6454 1.27978 30.7147 2.09418C29.5513 3.02493 28.9695 4.30471 28.9695 5.81717C28.9695 7.56233 29.5513 9.07479 30.3657 10.7036C30.482 11.0526 30.7147 11.2853 30.482 11.6343C29.6676 12.6814 28.7369 13.4958 27.5734 14.5429C27.6898 13.8449 27.6898 13.4958 27.8061 13.0305C28.0388 11.2853 28.1551 9.54017 27.3407 7.79501C26.759 6.63158 25.5956 6.51523 24.8975 7.56233C24.5485 8.0277 24.3158 8.49307 24.0831 9.07479C23.2687 11.6343 23.2687 14.1939 23.7341 16.7535C23.7341 17.1025 23.8504 17.4515 23.6177 17.6842C22.687 18.4986 21.7562 19.1967 20.7092 19.7784C20.2438 20.0111 19.7784 19.8947 19.8948 19.313C20.1274 18.3823 19.8948 17.4515 19.8948 16.6371C19.8948 15.241 19.6621 13.8449 18.964 12.5651C18.7313 12.0997 18.4986 11.7507 17.9169 11.6343C17.3352 11.6343 17.1025 11.9834 16.8698 12.4488C16.2881 13.3795 15.9391 14.4266 15.8227 15.4737C15.4737 17.6842 15.7064 19.7784 16.5208 21.7562C16.6371 22.1053 16.8698 22.4543 16.5208 22.8033C15.4737 23.6177 14.4266 24.4321 13.4959 25.3629C13.1468 25.7119 12.7978 25.7119 12.6815 25.0138C12.6815 24.1994 12.5651 23.385 12.4488 22.5706C12.2161 20.4765 11.8671 18.3823 10.7036 16.4044C10.4709 15.9391 10.0056 15.4737 9.42384 15.59C8.84212 15.7064 8.49309 16.1717 8.37675 16.7535C7.91137 18.3823 7.91137 20.1274 8.14406 21.7562C8.49309 23.9668 9.30749 26.0609 10.4709 27.9224C10.7036 28.3878 10.7036 28.6205 10.4709 29.0859C9.65652 30.2493 8.95846 31.5291 8.37675 32.8089C8.2604 33.0416 8.2604 33.2742 8.02772 33.3906C7.67868 33.3906 7.67868 33.0416 7.67868 32.8089C7.21331 31.2964 6.86428 29.6676 6.28256 28.1551C5.93353 27.108 5.35181 26.1773 4.53741 25.4792C3.37397 24.3158 1.86151 24.5485 1.0471 25.9446C1.2671e-05 27.9224 1.2671e-05 29.9003 1.0471 31.7618C2.21054 33.7396 3.83935 35.2521 5.70084 36.6482Z" fill="var(--fill-0, #FFF6EA)"/>
</g>
</svg>
