<svg preserveAspectRatio="none" width="100%" height="100%" overflow="visible" style="display: block;" viewBox="0 0 27.9701 27.9699" fill="none" xmlns="http://www.w3.org/2000/svg">
<g id="icon">
<path d="M17.7553 4.18254L18.918 1.1594C19.4446 -0.209781 21.2966 -0.415101 22.1103 0.805486C22.4457 1.30854 23.0103 1.6107 23.6149 1.6107L23.9413 1.6107C25.2768 1.6107 26.3594 2.69335 26.3594 4.02886V4.35526C26.3594 4.95986 26.6616 5.52446 27.1647 5.85983C28.3852 6.67355 28.1799 8.52551 26.8107 9.05212L23.7876 10.2149C23.2762 8.88302 22.4835 7.63437 21.4096 6.56047C20.3357 5.48659 19.0871 4.69394 17.7553 4.18254Z" fill="var(--fill-0, #FFF6EA)"/>
<path fill-rule="evenodd" clip-rule="evenodd" d="M7.79786 20.1722C11.2149 23.5893 16.7551 23.5893 20.1722 20.1722C23.5893 16.7551 23.5893 11.2149 20.1722 7.79786C16.7551 4.38077 11.2149 4.38077 7.79786 7.79786C4.38077 11.2149 4.38077 16.7551 7.79786 20.1722ZM16.7693 11.2008C15.2316 9.66316 12.7385 9.66316 11.2008 11.2008C9.66312 12.7385 9.66312 15.2316 11.2008 16.7693C12.7385 18.307 15.2316 18.307 16.7693 16.7693C17.2818 16.2568 17.2818 15.4257 16.7693 14.9132C16.2567 14.4006 15.4257 14.4006 14.9131 14.9132C14.4006 15.4257 13.5695 15.4257 13.057 14.9132C12.5444 14.4006 12.5444 13.5696 13.057 13.057C13.5695 12.5444 14.4006 12.5444 14.9131 13.057C15.4257 13.5696 16.2567 13.5696 16.7693 13.057C17.2818 12.5444 17.2818 11.7134 16.7693 11.2008Z" fill="var(--fill-0, #FFF6EA)"/>
<path d="M6.56052 21.4095C7.63441 22.4834 8.88303 23.276 10.2149 23.7874L9.05212 26.8105C8.52551 28.1797 6.67355 28.385 5.85983 27.1645C5.52446 26.6614 4.95986 26.3592 4.35526 26.3592L4.02886 26.3592C2.69335 26.3592 1.6107 25.2766 1.6107 23.9411L1.6107 23.6147C1.6107 23.0101 1.30854 22.4455 0.805486 22.1101C-0.415101 21.2964 -0.209781 19.4444 1.1594 18.9178L4.18257 17.7551C4.69397 19.0869 5.48662 20.3356 6.56052 21.4095Z" fill="var(--fill-0, #FFF6EA)"/>
</g>
</svg>
