<svg preserveAspectRatio="none" width="100%" height="100%" overflow="visible" style="display: block;" viewBox="0 0 31.5914 34.5625" fill="none" xmlns="http://www.w3.org/2000/svg">
<path id="icon" d="M20.9435 1.17699C20.8686 0.455997 20.2234 -0.0677682 19.5024 0.00712918C18.7814 0.0820265 18.2576 0.727224 18.3325 1.44822C18.4305 2.39112 18.0107 5.07782 15.0177 6.75603C14.3036 7.15644 13.7152 7.62287 13.2348 8.13088C13.0738 7.76911 12.8207 7.4563 12.5078 7.20488C11.0088 6.0005 8.69726 5.15714 5.47793 5.59075C3.43118 5.86642 2.31169 5.93309 1.73345 5.96752C1.64819 5.9726 1.57459 5.97698 1.51163 5.98122L1.49693 5.9822C1.40462 5.9883 1.20918 6.00123 1.03728 6.04437C0.979857 6.05879 0.878411 6.08742 0.762604 6.14297C0.657765 6.19326 0.441561 6.31217 0.260995 6.55606C0.0461983 6.84619 -0.0400179 7.20846 0.0172757 7.5606C0.0653512 7.85608 0.19998 8.05826 0.266832 8.14818C0.388678 8.31208 0.527944 8.41829 0.56006 8.44279L0.563589 8.44548C0.608998 8.48038 0.657445 8.5142 0.682561 8.53173L0.687226 8.53499C0.748898 8.57808 0.790876 8.60763 0.836692 8.64472C0.877929 8.6781 0.921152 8.70895 0.966125 8.7371C2.91405 9.95645 6.30397 11.1828 10.6567 11.4133C10.9604 11.4294 11.2588 11.3986 11.5409 11.3252C11.5306 11.3704 11.5206 11.4156 11.5112 11.4607C11.2075 12.908 11.3596 14.3053 11.6404 15.3125H3.90717C2.94067 15.3125 2.15717 16.096 2.15717 17.0625V17.2257C2.15717 18.2802 2.2763 19.3313 2.51229 20.359L5.15 31.8458C5.51507 33.4356 6.93001 34.5625 8.56122 34.5625H18.5031C20.1343 34.5625 21.5493 33.4357 21.9143 31.8458L24.552 20.359C24.788 19.3313 24.9072 18.2802 24.9072 17.2257V17.0625C24.9072 16.096 24.1237 15.3125 23.1572 15.3125H14.3289C14.3289 15.1662 14.3042 15.0174 14.2522 14.8717C14.0264 14.2386 13.8437 13.127 14.0802 11.9998C14.207 11.3957 14.4526 10.7855 14.8892 10.2284C15.2652 10.6875 15.8003 11.026 16.4205 11.1773C22.2595 12.6018 27.183 12.2438 30.1139 11.3731C30.1647 11.358 30.2146 11.3398 30.2633 11.3187C30.3486 11.2816 30.4243 11.2547 30.5165 11.2222L30.5227 11.22C30.5612 11.2064 30.626 11.1836 30.6864 11.1591L30.6909 11.1573C30.7344 11.1398 30.9028 11.0721 31.0679 10.9437C31.158 10.8736 31.343 10.7135 31.4689 10.4403C31.6188 10.1149 31.6326 9.74146 31.5026 9.40309C31.3932 9.11842 31.2155 8.94462 31.1262 8.86662C31.0277 8.78062 30.9353 8.72432 30.8808 8.69336C30.7123 8.59772 30.5023 8.52406 30.384 8.48255L30.3707 8.47788C30.2934 8.45072 30.2028 8.41968 30.0975 8.38361C29.3797 8.13775 27.9808 7.65856 25.4845 6.59016C23.4264 5.70927 21.5802 5.38137 19.9729 5.41317C20.856 3.78794 21.0473 2.17649 20.9435 1.17699Z" fill="var(--fill-0, #FFF6EA)"/>
</svg>
